<?xml version="1.0" encoding="UTF-8" standalone="no"?>
<!-- Generator: Adobe Illustrator 19.0.0, SVG Export Plug-In . SVG Version: 6.00 Build 0)  -->

<svg
   xmlns:dc="http://purl.org/dc/elements/1.1/"
   xmlns:cc="http://creativecommons.org/ns#"
   xmlns:rdf="http://www.w3.org/1999/02/22-rdf-syntax-ns#"
   xmlns:svg="http://www.w3.org/2000/svg"
   xmlns="http://www.w3.org/2000/svg"
   xmlns:sodipodi="http://sodipodi.sourceforge.net/DTD/sodipodi-0.dtd"
   xmlns:inkscape="http://www.inkscape.org/namespaces/inkscape"
   version="1.1"
   id="Layer_1"
   x="0px"
   y="0px"
   viewBox="0 0 512 512"
   xml:space="preserve"
   sodipodi:docname="pinterest.svg"
   width="512"
   height="512"
   inkscape:version="0.92.4 (5da689c313, 2019-01-14)"><metadata
   id="metadata39"><rdf:RDF><cc:Work
       rdf:about=""><dc:format>image/svg+xml</dc:format><dc:type
         rdf:resource="http://purl.org/dc/dcmitype/StillImage" /><dc:title></dc:title></cc:Work></rdf:RDF></metadata><defs
   id="defs37" /><sodipodi:namedview
   pagecolor="#ffffff"
   bordercolor="#666666"
   borderopacity="1"
   objecttolerance="10"
   gridtolerance="10"
   guidetolerance="10"
   inkscape:pageopacity="0"
   inkscape:pageshadow="2"
   inkscape:window-width="1920"
   inkscape:window-height="986"
   id="namedview35"
   showgrid="false"
   inkscape:zoom="1"
   inkscape:cx="343.32217"
   inkscape:cy="256.42593"
   inkscape:window-x="-11"
   inkscape:window-y="-11"
   inkscape:window-maximized="1"
   inkscape:current-layer="Layer_1" />
<circle
   style="opacity:1;fill:#cb1f24;fill-opacity:1;stroke:none;stroke-width:0.02844444;stroke-linejoin:round;stroke-miterlimit:4;stroke-dasharray:none;stroke-opacity:1"
   id="path867"
   cx="256"
   cy="256"
   r="256" /><path
   style="opacity:1;fill:#ffffff;fill-opacity:1;stroke:none;stroke-width:1.55569887;stroke-linejoin:round;stroke-miterlimit:4;stroke-dasharray:none;stroke-opacity:1"
   d="M 264.82639,86.359064 C 143.0054,86.359064 82.096,173.60131 82.096,245.86297 c 0,44.06218 15.8909,82.83713 52.0839,97.81836 6.179,2.64445 11.4743,-0.002 13.2403,-6.16992 0.883,-4.40542 4.4138,-15.86117 5.2968,-20.26758 1.766,-6.16839 0.8828,-8.81171 -3.5312,-14.09961 -10.593,-12.33678 -16.7715,-28.19938 -16.7715,-50.23047 0,-64.33031 48.5514,-122.49219 126.23439,-122.49219 68.855,0 106.8144,41.4184 106.8144,97.81836 0,73.14314 -32.6628,135.71094 -81.2148,135.71094 -27.366,0 -46.78639,-22.03062 -40.60739,-49.34961 7.945,-32.60589 22.95309,-67.85501 22.95309,-90.76758 0,-21.14961 -11.4777,-38.77343 -34.42969,-38.77343 -27.365,0 -49.4336,28.198 -49.4336,66.09179 0,23.79406 7.9453,40.53906 7.9453,40.53906 0,0 -27.3651,118.08672 -32.6621,139.23633 -4.4023,19.33635 -5.2737,41.95581 -4.4023,59.56055 a 256,256 0 0 0 30.0136,10.91601 l 0.01,-0.008 c 9.7051,-14.97851 20.2882,-35.23368 25.582,-54.60937 2.648,-11.45629 17.6543,-70.5 17.6543,-70.5 8.828,16.74319 35.30979,31.72461 62.67579,31.72461 82.096,0 137.711,-74.90607 137.711,-175.36719 0,-75.7866 -64.4437,-146.285156 -162.4297,-146.285156 z"
   id="path846"
   inkscape:connector-curvature="0" />
<g
   id="g4"
   transform="translate(0,-0.88299561)">
</g>
<g
   id="g6"
   transform="translate(0,-0.88299561)">
</g>
<g
   id="g8"
   transform="translate(0,-0.88299561)">
</g>
<g
   id="g10"
   transform="translate(0,-0.88299561)">
</g>
<g
   id="g12"
   transform="translate(0,-0.88299561)">
</g>
<g
   id="g14"
   transform="translate(0,-0.88299561)">
</g>
<g
   id="g16"
   transform="translate(0,-0.88299561)">
</g>
<g
   id="g18"
   transform="translate(0,-0.88299561)">
</g>
<g
   id="g20"
   transform="translate(0,-0.88299561)">
</g>
<g
   id="g22"
   transform="translate(0,-0.88299561)">
</g>
<g
   id="g24"
   transform="translate(0,-0.88299561)">
</g>
<g
   id="g26"
   transform="translate(0,-0.88299561)">
</g>
<g
   id="g28"
   transform="translate(0,-0.88299561)">
</g>
<g
   id="g30"
   transform="translate(0,-0.88299561)">
</g>
<g
   id="g32"
   transform="translate(0,-0.88299561)">
</g>
</svg>