<?xml version="1.0" encoding="UTF-8" standalone="no"?>
<svg
   xmlns:dc="http://purl.org/dc/elements/1.1/"
   xmlns:cc="http://creativecommons.org/ns#"
   xmlns:rdf="http://www.w3.org/1999/02/22-rdf-syntax-ns#"
   xmlns:svg="http://www.w3.org/2000/svg"
   xmlns="http://www.w3.org/2000/svg"
   xmlns:sodipodi="http://sodipodi.sourceforge.net/DTD/sodipodi-0.dtd"
   xmlns:inkscape="http://www.inkscape.org/namespaces/inkscape"
   id="beb8b204-3759-49ce-94f2-7f3d3b03c1ba"
   data-name="Layer 1"
   width="800"
   height="600"
   viewBox="0 0 800 600.00002"
   version="1.1"
   sodipodi:docname="create_page.svg"
   inkscape:version="0.92.4 (5da689c313, 2019-01-14)">
  <metadata
     id="metadata115">
    <rdf:RDF>
      <cc:Work
         rdf:about="">
        <dc:format>image/svg+xml</dc:format>
        <dc:type
           rdf:resource="http://purl.org/dc/dcmitype/StillImage" />
        <dc:title></dc:title>
      </cc:Work>
    </rdf:RDF>
  </metadata>
  <defs
     id="defs113" />
  <sodipodi:namedview
     pagecolor="#ffffff"
     bordercolor="#666666"
     borderopacity="1"
     objecttolerance="10"
     gridtolerance="10"
     guidetolerance="10"
     inkscape:pageopacity="0"
     inkscape:pageshadow="2"
     inkscape:window-width="1920"
     inkscape:window-height="986"
     id="namedview111"
     showgrid="false"
     inkscape:zoom="0.25000001"
     inkscape:cx="-1111.073"
     inkscape:cy="579.01706"
     inkscape:window-x="-11"
     inkscape:window-y="-11"
     inkscape:window-maximized="1"
     inkscape:current-layer="beb8b204-3759-49ce-94f2-7f3d3b03c1ba" />
  <g
     id="g1001"
     transform="matrix(0.83631253,0,0,0.83631253,-1.2809946e-6,-4.2221307)">
    <rect
       style="fill:#e6e6e6"
       id="rect2"
       transform="rotate(-51.23093)"
       height="138.03873"
       width="1.99915"
       y="517.99805"
       x="-159.62506" />
    <rect
       style="fill:#e6e6e6"
       id="rect4"
       transform="rotate(-39.09657)"
       height="2.00073"
       width="138.69112"
       y="607.0257"
       x="-101.66703" />
    <rect
       style="fill:#e6e6e6"
       id="rect6"
       transform="rotate(-50.66761)"
       height="316.24124"
       width="1.99989"
       y="585.78467"
       x="191.274" />
    <rect
       style="fill:#e6e6e6"
       id="rect8"
       transform="rotate(-39.49025)"
       height="1.99973"
       width="316.87601"
       y="691.90906"
       x="174.07443" />
    <path
       style="fill:#e6e6e6"
       inkscape:connector-curvature="0"
       id="path10"
       d="M 892.5,127.53214 H 7.5 a 7.50271,7.50271 0 0 0 -7.5,7.5 v 457 a 7.50272,7.50272 0 0 0 7.5,7.5 h 885 a 7.53035,7.53035 0 0 0 6.03,-3.06 6.56732,6.56732 0 0 0 0.95,-1.72 7.23422,7.23422 0 0 0 0.52,-2.72 v -457 a 7.50272,7.50272 0 0 0 -7.5,-7.5 z m 4.5,464.5 a 4.50681,4.50681 0 0 1 -4.5,4.5 H 7.5 a 4.50681,4.50681 0 0 1 -4.5,-4.5 v -457 a 4.50677,4.50677 0 0 1 4.5,-4.5 h 885 a 4.50677,4.50677 0 0 1 4.5,4.5 z" />
    <rect
       style="fill:#e6e6e6"
       id="rect12"
       height="2"
       width="897"
       y="165.86221"
       x="3" />
    <path
       style="fill:#e6e6e6"
       inkscape:connector-curvature="0"
       id="path14"
       d="m 929.9428,538.9825 a 215.891,215.891 0 0 1 -10.0849,59.67912 c -0.1405,0.44836 -0.2877,0.89 -0.435,1.3384 h -37.6357 c 0.04,-0.40154 0.08,-0.84989 0.1205,-1.3384 2.5095,-28.84918 16.9775,-204.43347 -0.3213,-234.46045 1.5125,2.43591 51.2741,83.11447 48.3564,174.78133 z" />
    <path
       style="fill:#e6e6e6"
       inkscape:connector-curvature="0"
       id="path16"
       d="m 927.1188,598.66162 c -0.3146,0.44836 -0.6425,0.89671 -0.9771,1.3384 h -28.2335 c 0.2142,-0.38145 0.4618,-0.8298 0.7495,-1.3384 4.6644,-8.41853 18.4699,-33.58708 31.285,-59.67912 13.7722,-28.03944 26.4066,-57.14288 25.3426,-67.67606 0.3279,2.37564 9.8573,74.7963 -28.1665,127.35518 z" />
    <path
       style="fill:#e6e6e6"
       inkscape:connector-curvature="0"
       id="path18"
       d="m 545.58025,312.00002 h -238 a 7.00785,7.00785 0 0 1 -7,-7 v -79 a 7.00786,7.00786 0 0 1 7,-7 h 238 a 7.00787,7.00787 0 0 1 7,7 v 79 a 7.00786,7.00786 0 0 1 -7,7 z m -238,-91 a 5.00589,5.00589 0 0 0 -5,5 v 79 a 5.00588,5.00588 0 0 0 5,5 h 238 a 5.00589,5.00589 0 0 0 5,-5 v -79 a 5.00589,5.00589 0 0 0 -5,-5 z" />
    <path
       style="fill:#e6e6e6"
       inkscape:connector-curvature="0"
       id="path20"
       d="m 817.58025,539.00002 h -238 a 7.00817,7.00817 0 0 1 -7,-7 v -79 a 7.00818,7.00818 0 0 1 7,-7 h 238 a 7.0085,7.0085 0 0 1 7,7 v 79 a 7.00849,7.00849 0 0 1 -7,7 z" />
    <path
       style="fill:#e6e6e6"
       inkscape:connector-curvature="0"
       id="path22"
       d="m 408.58025,425.00002 h -101 a 7.00817,7.00817 0 0 1 -7,-7 v -79 a 7.00786,7.00786 0 0 1 7,-7 h 101 a 7.00787,7.00787 0 0 1 7,7 v 79 a 7.00818,7.00818 0 0 1 -7,7 z m -101,-91 a 5.00589,5.00589 0 0 0 -5,5 v 79 a 5.00588,5.00588 0 0 0 5,5 h 101 a 5.00589,5.00589 0 0 0 5,-5 v -79 a 5.00589,5.00589 0 0 0 -5,-5 z" />
    <path
       style="fill:#e6e6e6"
       inkscape:connector-curvature="0"
       id="path24"
       d="m 545.58025,425.00002 h -101 a 7.00817,7.00817 0 0 1 -7,-7 v -79 a 7.00786,7.00786 0 0 1 7,-7 h 101 a 7.00787,7.00787 0 0 1 7,7 v 79 a 7.00818,7.00818 0 0 1 -7,7 z" />
    <path
       style="fill:#3f3d56"
       inkscape:connector-curvature="0"
       id="path26"
       d="m 408.58025,538.00002 h -101 a 7.00817,7.00817 0 0 1 -7,-7 v -79 a 7.00818,7.00818 0 0 1 7,-7 h 101 a 7.00818,7.00818 0 0 1 7,7 v 79 a 7.00818,7.00818 0 0 1 -7,7 z m -101,-91 a 5.00589,5.00589 0 0 0 -5,5 v 79 a 5.00588,5.00588 0 0 0 5,5 h 101 a 5.00589,5.00589 0 0 0 5,-5 v -79 a 5.00589,5.00589 0 0 0 -5,-5 z" />
    <path
       style="fill:#e6e6e6"
       inkscape:connector-curvature="0"
       id="path28"
       d="m 545.58025,538.00002 h -101 a 7.00817,7.00817 0 0 1 -7,-7 v -79 a 7.00818,7.00818 0 0 1 7,-7 h 101 a 7.00818,7.00818 0 0 1 7,7 v 79 a 7.00818,7.00818 0 0 1 -7,7 z m -101,-91 a 5.00589,5.00589 0 0 0 -5,5 v 79 a 5.00588,5.00588 0 0 0 5,5 h 101 a 5.00589,5.00589 0 0 0 5,-5 v -79 a 5.00589,5.00589 0 0 0 -5,-5 z" />
    <path
       style="fill:#3f3d56"
       inkscape:connector-curvature="0"
       id="path30"
       d="m 816.58025,426.00002 h -238 a 7.00817,7.00817 0 0 1 -7,-7 v -193 a 7.00786,7.00786 0 0 1 7,-7 h 238 a 7.00818,7.00818 0 0 1 7,7 v 193 a 7.00849,7.00849 0 0 1 -7,7 z m -238,-205 a 5.00589,5.00589 0 0 0 -5,5 v 193 a 5.00588,5.00588 0 0 0 5,5 h 238 a 5.00589,5.00589 0 0 0 5,-5 v -193 a 5.00589,5.00589 0 0 0 -5,-5 z" />
    <path
       style="fill:#ff3030"
       inkscape:connector-curvature="0"
       id="path44"
       d="m 436.58025,560.00002 h -101 a 7.00817,7.00817 0 0 1 -7,-7 v -79 a 7.00818,7.00818 0 0 1 7,-7 h 101 a 7.00818,7.00818 0 0 1 7,7 v 79 a 7.00818,7.00818 0 0 1 -7,7 z" />
    <path
       style="fill:#ffffff"
       inkscape:connector-curvature="0"
       id="path46"
       d="m 397.4114,536.86913 h -50.705 a 1.03438,1.03438 0 0 1 -0.18948,-0.015 l 23.98118,-41.53877 a 1.6791,1.6791 0 0 1 2.92284,0 l 16.09429,27.87572 0.77105,1.33386 z" />
    <polygon
       transform="translate(0,127.53214)"
       id="polygon48"
       style="opacity:0.2;isolation:isolate"
       points="389.21,396.104 389.515,395.659 390.286,396.993 397.411,409.337 380.1,409.337 388.598,396.993 " />
    <path
       style="fill:#ffffff"
       inkscape:connector-curvature="0"
       id="path50"
       d="m 425.64357,536.86913 h -43.85565 l 8.49836,-12.34419 0.61158,-0.88924 11.07413,-16.08684 a 2.24078,2.24078 0 0 1 3.32617,-0.19886 2.00131,2.00131 0 0 1 0.15948,0.19886 z" />
    <circle
       style="fill:#ffffff"
       id="circle52"
       r="7.5115099"
       cy="497.64233"
       cx="392.59009" />
    <rect
       style="fill:#3f3d56"
       id="rect54"
       height="16"
       width="16"
       y="475"
       x="338.58026" />
    <path
       style="fill:#e6e6e6"
       inkscape:connector-curvature="0"
       d="m 100.19823,317.97032 a 5.94683,5.94683 0 0 0 0,11.892 h 107.08573 a 5.94683,5.94683 0 0 0 0.19525,-11.892 q -0.0976,-0.002 -0.19525,0 z"
       data-name="Path 40"
       id="f57cf1cd-83f7-4fd3-a8d1-d71a660a6415" />
    <path
       style="fill:#e6e6e6"
       inkscape:connector-curvature="0"
       d="m 100.19823,348.97032 a 5.94683,5.94683 0 0 0 0,11.892 h 107.08573 a 5.94683,5.94683 0 0 0 0.19525,-11.892 q -0.0976,-0.002 -0.19525,0 z"
       data-name="Path 40"
       id="aee25563-7463-4829-8b3c-d6945ce6dfe7" />
    <path
       style="fill:#e6e6e6"
       inkscape:connector-curvature="0"
       d="m 100.19823,379.97032 a 5.94683,5.94683 0 0 0 0,11.892 h 107.08573 a 5.94683,5.94683 0 0 0 0.19525,-11.892 q -0.0976,-0.002 -0.19525,0 z"
       data-name="Path 40"
       id="aefa15f9-40e4-4075-8c80-8ab2e97e1ce3" />
    <path
       style="fill:#e6e6e6"
       inkscape:connector-curvature="0"
       d="m 100.19823,410.97032 a 5.94683,5.94683 0 0 0 0,11.892 h 107.08573 a 5.94683,5.94683 0 0 0 0.19525,-11.892 q -0.0976,-0.002 -0.19525,0 z"
       data-name="Path 40"
       id="a405b459-42e8-4eb5-9988-b9086189387e" />
    <path
       style="fill:#e6e6e6"
       inkscape:connector-curvature="0"
       d="m 100.19823,441.97032 a 5.94683,5.94683 0 0 0 0,11.892 h 107.08573 a 5.94683,5.94683 0 0 0 0.19525,-11.892 q -0.0976,-0.002 -0.19525,0 z"
       data-name="Path 40"
       id="b32f5175-a272-4d51-9048-0542c511c928" />
    <path
       style="fill:#e6e6e6"
       inkscape:connector-curvature="0"
       d="m 100.19823,472.97032 a 5.94683,5.94683 0 0 0 0,11.892 h 107.08573 a 5.94683,5.94683 0 0 0 0.19525,-11.892 q -0.0976,-0.002 -0.19525,0 z"
       data-name="Path 40"
       id="b3f78383-4856-4bdc-97c4-b8cb03fde67d" />
    <path
       style="fill:#e6e6e6"
       inkscape:connector-curvature="0"
       id="path62"
       d="m 61.9267,334.94794 a 11,11 0 1 1 11,-11 11.01245,11.01245 0 0 1 -11,11 z m 0,-20 a 9,9 0 1 0 9,9 9.01016,9.01016 0 0 0 -9,-9 z" />
    <path
       style="fill:#e6e6e6"
       inkscape:connector-curvature="0"
       id="path64"
       d="m 61.9267,365.94794 a 11,11 0 1 1 11,-11 11.01245,11.01245 0 0 1 -11,11 z m 0,-20 a 9,9 0 1 0 9,9 9.01016,9.01016 0 0 0 -9,-9 z" />
    <path
       style="fill:#e6e6e6"
       inkscape:connector-curvature="0"
       id="path66"
       d="m 61.9267,396.91669 a 11,11 0 1 1 11,-11 11.01245,11.01245 0 0 1 -11,11 z m 0,-20 a 9,9 0 1 0 9,9 9.01016,9.01016 0 0 0 -9,-9 z" />
    <path
       style="fill:#e6e6e6"
       inkscape:connector-curvature="0"
       id="path68"
       d="m 61.9267,427.91669 a 11,11 0 1 1 11,-11 11.01245,11.01245 0 0 1 -11,11 z m 0,-20 a 9,9 0 1 0 9,9 9.01016,9.01016 0 0 0 -9,-9 z" />
    <path
       style="fill:#e6e6e6"
       inkscape:connector-curvature="0"
       id="path70"
       d="m 61.9267,458.91669 a 11,11 0 1 1 11,-11 11.01245,11.01245 0 0 1 -11,11 z m 0,-20 a 9,9 0 1 0 9,9 9.01016,9.01016 0 0 0 -9,-9 z" />
    <path
       style="fill:#e6e6e6"
       inkscape:connector-curvature="0"
       id="path72"
       d="m 61.9267,489.91669 a 11,11 0 1 1 11,-11 11.01245,11.01245 0 0 1 -11,11 z m 0,-20 a 9,9 0 1 0 9,9 9.01016,9.01016 0 0 0 -9,-9 z" />
    <circle
       style="fill:#ff3030"
       id="circle74"
       r="5"
       cy="323.94794"
       cx="61.926701" />
    <circle
       style="fill:#ff3030"
       id="circle76"
       r="5"
       cy="385.94794"
       cx="61.926701" />
    <circle
       style="fill:#ff3030"
       id="circle78"
       r="5"
       cy="416.94794"
       cx="61.926701" />
    <circle
       style="fill:#e6e6e6"
       id="circle104"
       r="8.5"
       cy="149.26608"
       cx="27.7901" />
    <circle
       style="fill:#e6e6e6"
       id="circle106"
       r="8.5"
       cy="149.26608"
       cx="52.440102" />
    <circle
       style="fill:#e6e6e6"
       id="circle108"
       r="8.5"
       cy="149.26608"
       cx="77.090103" />
    <path
       style="fill:#192534;stroke-width:0.8242957"
       inkscape:connector-curvature="0"
       id="path40"
       d="m 583.90271,336.47351 1.23645,-1.42603 c 0,0 6.34707,10.0564 7.01475,13.84816 0.66768,3.79176 1.51671,8.15229 1.51671,8.15229 0,0 1.64858,4.94578 2.65423,7.11367 1.00564,2.16789 1.99479,4.26985 2.08547,5.21779 0.0907,0.94794 -0.37918,3.03341 1.64859,4.36052 2.02777,1.32712 2.47288,4.94578 2.47288,4.94578 0,0 7.20435,7.023 10.99611,7.21259 3.79176,0.18958 14.70544,2.08546 14.32626,3.98135 -0.37917,1.89588 4.55011,3.03341 6.53666,3.50325 1.98656,0.46986 -12.80131,6.16573 -4.17093,13.469 0,0 -5.49806,1.13752 -6.06682,2.47288 -0.56877,1.33536 -6.35532,-0.75835 -6.35532,-0.75835 0,0 -1.2282,-2.93449 -5.49805,-3.12408 -4.26985,-0.18959 -6.44599,-2.09371 -6.44599,-2.37397 0,-0.28027 -4.26985,-2.65424 -6.64382,-3.29719 -2.37398,-0.64294 -5.49806,-0.94793 -5.59697,-1.60737 -0.0989,-0.65944 -14.2191,-61.64083 -14.2191,-61.64083 z" />
    <g
       transform="translate(0,127.53214)"
       id="g1122">
      <path
         style="fill:#ff3030"
         inkscape:connector-curvature="0"
         d="m 977.29015,547.23394 h -238 a 7.00848,7.00848 0 0 1 -7,-7 v -193 a 7.00818,7.00818 0 0 1 7,-7 h 238 a 7.00818,7.00818 0 0 1 7,7 v 193 a 7.00849,7.00849 0 0 1 -7,7 z"
         transform="translate(-121.7099,-213.76606)"
         id="path32" />
      <path
         style="fill:#ffffff"
         inkscape:connector-curvature="0"
         d="M 885.44323,499.73384 H 763.93778 a 2.47766,2.47766 0 0 1 -0.45406,-0.036 l 57.46648,-99.54021 a 4.02365,4.02365 0 0 1 7.00406,0 l 38.56722,66.79921 1.84768,3.19635 z"
         transform="translate(-121.7099,-213.76606)"
         id="path34" />
      <polygon
         points="744.079,254.256 744.812,253.191 746.66,256.387 763.733,285.968 722.248,285.968 742.613,256.387 "
         style="opacity:0.2;isolation:isolate"
         id="polygon36" />
      <path
         style="fill:#ffffff"
         inkscape:connector-curvature="0"
         d="M 953.09658,499.73384 H 848.00434 l 20.36482,-29.58065 1.46553,-2.1309 26.53718,-38.54929 a 5.36965,5.36965 0 0 1 7.97059,-0.47651 4.796,4.796 0 0 1 0.38215,0.47651 z"
         transform="translate(-121.7099,-213.76606)"
         id="path38" />
      <circle
         style="fill:#ffffff"
         cx="752.17993"
         cy="191.96777"
         r="18"
         id="circle40" />
      <rect
         style="fill:#3f3d56"
         x="623.58026"
         y="140.46788"
         width="22"
         height="22"
         id="rect42" />
    </g>
    <g
       transform="matrix(0.82429569,0,0,0.82429569,109.71992,211.90761)"
       id="g1107">
      <path
         style="fill:#3f3d56"
         inkscape:connector-curvature="0"
         d="m 557.33811,470.36797 c -15.18,2.85 -17.95,-8.8 -17.95,-8.8 0,0 -1.89,-10.36001 -2.58,-11.13 a 1.24,1.24 0 0 1 -0.12,-1 v 0 a 13.45,13.45 0 0 1 2.23,-4.87 c 0.95,-1.12001 0.17,-5.78 0.17,-5.78 l 17.6,-4.49 a 27.18,27.18 0 0 1 1.73,5.18 c 0.17,1.64 2.76,9.06 2.5,10.09 -0.26,1.02999 1.12,4.23 1.29,5.87 0.17,1.63999 2.33,4.06 2.51,4.92 a 20.37,20.37 0 0 0 1,2.27 23.33,23.33 0 0 1 1.12,3.50999 c 0.77,3.62001 -9.5,4.23001 -9.5,4.23001 z"
         id="path42" />
      <path
         style="opacity:0.1"
         inkscape:connector-curvature="0"
         d="m 557.33811,470.36797 c -15.18,2.85 -17.95,-8.8 -17.95,-8.8 0,0 -1.89,-10.36001 -2.58,-11.13 a 1.24,1.24 0 0 1 -0.12,-1 l 3.65,10.48 c 0,0 3,6.3 14.24,5.35 6.38,-0.54 9.53,-1.72 11.05,-2.65 a 23.33,23.33 0 0 1 1.12,3.51 c 0.86,3.63 -9.41,4.24 -9.41,4.24 z"
         id="path44-2" />
      <path
         style="opacity:0.1"
         inkscape:connector-curvature="0"
         d="m 545.51811,453.96796 c 0,0 3.8,0.09 4.06,-3 z"
         id="path46-8" />
      <path
         style="fill:#192534"
         inkscape:connector-curvature="0"
         d="m 611.52811,351.98797 c -1.9,2.83999 -4.06,15.27 -4.06,15.27 a 13,13 0 0 0 -1.38,5.25999 c 0.09,2.42001 -1.38,6.82 -1.38,6.82 l -4.79,17.86 c 0,0 0.52,4.75 -1.29,8.11001 -1.81,3.36 -1.64,2.32999 -0.78,8.2 0.86,5.87 -1,11.3 -4.14,13 -3.14,1.69999 1.38,5.77999 1.38,5.77999 0,0 -19.85,5.35 -24,2.07 -4.15,-3.28 2.16,-19.5 2.16,-19.5 0,0 -1,-13.64 -0.35,-15.62 0.65,-1.98 3.63,-18.9 3.63,-18.9 0,0 1.81,-7.68 1.12,-9 -0.69,-1.32 0.43,-5 0.43,-5 0,0 2.93,-4.14999 2.67,-5.44 -0.26,-1.29 0.87,-3.62 0.87,-3.62 0,0 -8.8,-13.45999 -8,-16 0.8,-2.54 -0.34,-6.55 -0.34,-6.55 0,0 -1.11,-1.91 -2.45,-4.19 -1.64,-2.8 -3.62,-6.16 -4.28,-7.2 -0.85,-1.33999 -2.89,-7 -4,-10.26 -0.48,-1.38999 -0.8,-2.33999 -0.8,-2.33999 0,0 -1.39,25.37 -2.59,28 -1.2,2.63 -3,23 -3,23 a 14.41,14.41 0 0 0 -0.87,5.7 c 0.18,3.19 -2.76,17.07999 -2.76,17.07999 0,0 -1.29,9.84 -0.43,12.43 0.86,2.59 0.17,21.65 0.17,21.65 0,0 4.75,3.71 6,6.56 1.25,2.85001 -0.17,10.61 -0.17,10.61 0,0 -13.81,6.91001 -19.94,5.10001 -6.13,-1.81 -3.62,-12.26 -3.62,-12.26 0,0 -4.14,-6.9 -4.14,-9.57 a 108.36,108.36 0 0 0 -1.47,-10.88 c -5.26,-9.66 -3.19,-33.13 -4.05,-35 -0.86,-1.87 1.81,-9 4,-12.16 2.19,-3.16001 1.3,-11.82 0,-14.33 -1.3,-2.51 1.3,-11.13 1.3,-11.13 0,0 -2.5,-16.74 -2.42,-19.33 0.08,-2.59 -2.15,-10.26 -2.15,-10.26 0,0 -2.25,-4 -1.73,-5.18 0.52,-1.18 -1.73,-4.31 -1.12,-5.69 0.61,-1.38 -0.52,-5.61 -1.64,-8.12 a 48.29,48.29 0 0 1 -1.84,-7.94 c -0.53,-3 -0.92,-5.6 -0.92,-5.6 l 14.24,-11.48 35.32,-9.27 13.38,-4.31 13,20.53 c 0,0 1.34,2.15 2.53,4.63 1,2.13 1.94,4.51 1.78,6 a 8.29,8.29 0 0 0 1.21,5.35 c 0,0 7.77,24.59 7.59,31.66 -0.18,7.07 2.76,22.61 2.76,22.61 0,0 3.26,10 1.36,12.85 z"
         id="path48" />
      <path
         style="fill:#fec2be"
         inkscape:connector-curvature="0"
         d="m 558.96811,151.97796 c -0.55,-0.23 -38.09,-15.73 -32.92,-18.81 3.07,-1.83 6.85,-9.58 9.43,-15.65 1.81,-4.23 3,-7.65 3,-7.65 0,0 30.13,-5.35 19.35,13.12 a 34,34 0 0 0 -3.8,9.09 c -3.05,12.58 4.68,19.67 4.94,19.9 z"
         id="path50-5" />
      <path
         style="opacity:0.1"
         inkscape:connector-curvature="0"
         d="m 557.85811,122.98797 a 34,34 0 0 0 -3.8,9.08999 21,21 0 0 1 -17.79,-12.49999 20.38,20.38 0 0 1 -0.79,-2.06 c 1.81,-4.23 3,-7.65001 3,-7.65001 0,0 30.16,-5.34999 19.38,13.12001 z"
         id="path52" />
      <path
         style="fill:#fec2be"
         inkscape:connector-curvature="0"
         d="m 576.57811,110.38796 a 21.05,21.05 0 0 1 -40.31,8.5 20.81,20.81 0 0 1 -1.79,-8.5 21.05,21.05 0 0 1 41.28,-5.83 20.79,20.79 0 0 1 0.82,5.83 z"
         id="path54" />
      <path
         style="opacity:0.1"
         inkscape:connector-curvature="0"
         d="m 596.91811,273.51796 c -2.2,2 -3.05,5.82 -3.05,5.82 0,0 -10.35,7.07 -9.66,2.58 0.69,-4.49 -5.35,-22.59999 -5.35,-22.59999 l 0.69,24.67 c 0,0 -33.14,-1.55 -35.55,-4 -2.41,-2.45 -16.57,-7.08001 -16.57,-7.08001 0,0 -4.33,3.48 -8.31,6.12 -0.53,-3 -0.92,-5.59999 -0.92,-5.59999 l 14.24,-11.48001 35.48,-9.27999 13.38,-4.31 13,20.52999 c 0,0 1.4,2.18001 2.62,4.63 z"
         id="path56" />
      <path
         style="fill:#ffffff"
         inkscape:connector-curvature="0"
         d="m 597.97811,271.56797 c -2.76,1.72999 -3.8,6.37999 -3.8,6.37999 0,0 -10.35,7.08 -9.66,2.59 0.69,-4.49 -5.35,-22.59999 -5.35,-22.59999 l 0.69,24.67 c 0,0 -33.13,-1.55 -35.55,-4 -2.42,-2.45 -16.56,-7.07 -16.56,-7.07 0,0 -12.26,9.84 -14.5,9 -2.24,-0.84001 4,-17.6 4,-17.6 l 6.38,-98 c 0,0 -1.72,-29.16 0.87,-30.2 a 3.59,3.59 0 0 0 1.08,-0.68 c 1.71,-1.53 2.22,-4.64 2.37,-7.26 0.17,-3.1 4.31,-1.55 4.31,-1.55 l -2.41,3.11 21.38,13 0.19,0.11 a 24.43,24.43 0 0 1 2.57,-1.16 c 1.89,-0.73001 4.41,-1.42001 6.06,-0.74 a 5.88,5.88 0 0 1 2.26,2 25.56,25.56 0 0 1 2.91,5.9 l 7.7,13.14 c 0,0 4,17.43 4,18.12 0,0.69 1.21,16.56 2.59,18.28999 1.38,1.73001 2.76,10.35001 2.24,12.94 -0.52,2.59001 0.86,12.26 0.86,12.26 5.7,4.65001 8.63,20.53001 8.63,20.53001 0,0 9,17.77999 9.66,19.84999 0.66,2.07 -0.16,7.24 -2.92,8.97001 z"
         id="path58" />
      <path
         style="opacity:0.1"
         inkscape:connector-curvature="0"
         d="m 551.19811,142.06797 c -2.1,3.10999 -8.15,7.47999 -8.15,7.47999 l -17.5,-14.78 c 1.71,-1.53 2.22,-4.63999 2.37,-7.24999 0.17,-3.11 4.31,-1.56 4.31,-1.56 l -0.5,0.65 a 2.78,2.78 0 0 0 0.75,4.08 z"
         id="path60" />
      <path
         style="fill:#ffffff"
         inkscape:connector-curvature="0"
         d="m 551.19811,141.33796 c -2.1,3.11 -8.15,7.47 -8.15,7.47 l -17.5,-14.73999 c 1.71,-1.53001 2.22,-4.64001 2.37,-7.26001 0.17,-3.09999 4.31,-1.54999 4.31,-1.54999 l -0.5,0.65 a 2.78,2.78 0 0 0 0.75,4.07999 z"
         id="path62-5" />
      <path
         style="opacity:0.1"
         inkscape:connector-curvature="0"
         d="m 559.28811,143.66796 c -2.26,2.7 -5.46,5.76 -5.31,4.23 0.15,-1.53 -1.91,-4.93 -3.23,-6.45 a 9.52,9.52 0 0 1 6.27,0.18001 5.68,5.68 0 0 1 2.27,2.03999 z"
         id="path64-9" />
      <path
         style="fill:#ffffff"
         inkscape:connector-curvature="0"
         d="m 559.62811,142.62797 c -2.26,2.69999 -5.46,5.76999 -5.31,4.22999 0.15,-1.53999 -1.7,-4 -3,-5.53999 1.89,-0.73001 4.41,-1.41001 6.06,-0.73001 a 5.81,5.81 0 0 1 2.25,2.04001 z"
         id="path66-4" />
      <path
         style="opacity:0.1"
         inkscape:connector-curvature="0"
         d="m 525.55811,134.89796 c 0,0 0.23,-2.07999 -2.76,1.49 -2.99,3.57 -8.63,6.67 -8.63,6.67 0,0 -12.77,9 -13.46,13.12 -0.69,4.12 -4.83,22.09 -2.65,28.07001 2.18,5.97999 18.86,34.63 18.86,34.63 0,0 -4.37,5.18 -3.33,11.26999 1.04,6.09001 2.3,14.5 1.72,16.34001 -0.58,1.83999 0.69,6.44 -1.26,8.05 -1.95,1.61 -4,4.37 2.07,8.06 0,0 1.15,3.09999 0.11,3.78999 -1.04,0.69 15.3,7.83001 21.74,4 6.44,-3.82999 18.07,-34.16999 18.3,-41 0.23,-6.82999 -3.57,-29.21999 -5.64,-34.50999 -2.07,-5.29 -8.28,-25.89 -10.93,-30.49001 -2.65,-4.59999 -14.14,-29.48999 -14.14,-29.49 z"
         id="path84" />
      <path
         style="fill:#192534"
         inkscape:connector-curvature="0"
         d="m 524.91811,134.89796 c 0,0 0.23,-2.07999 -2.76,1.49 -2.99,3.57 -8.63,6.67 -8.63,6.67 0,0 -12.77,9 -13.46,13.12 -0.69,4.12 -4.83,22.09 -2.65,28.07001 2.18,5.97999 18.87,34.63 18.87,34.63 0,0 -4.37,5.19 -3.37,11.26999 1,6.08001 2.31,14.5 1.73,16.34001 -0.58,1.83999 0.69,6.44 -1.26,8.05 -1.95,1.61 -4,4.37 2.07,8.06 0,0 1.15,3.09999 0.11,3.78999 -1.04,0.69 15.3,7.83001 21.74,4 6.44,-3.82999 18.07,-34.16999 18.3,-41 0.23,-6.82999 -3.57,-29.21999 -5.64,-34.50999 -2.07,-5.29 -8.3,-25.81 -10.95,-30.42 -2.65,-4.61 -14.1,-29.56 -14.1,-29.56001 z"
         id="path86" />
      <path
         style="opacity:0.1"
         inkscape:connector-curvature="0"
         d="m 520.26811,154.44796 c 0,0 9.89,10.93001 9.55,18.18001 0,0 0.1,-11.73001 -9.55,-18.18001 z"
         id="path88" />
      <path
         style="opacity:0.1"
         inkscape:connector-curvature="0"
         d="m 533.91811,172.39796 c 0,0.35001 6.67,25.2 6.33,28.3 -0.34,3.10001 1.95,12.31001 1.95,12.31001 l 3.11,-0.80001 c 0,0 -2.42,-12.76999 -2.88,-17.49 -0.46,-4.71999 -8.51,-22.32 -8.51,-22.32 z"
         id="path90" />
      <path
         style="opacity:0.1"
         inkscape:connector-curvature="0"
         d="m 536.59811,243.26796 c -0.23,0.34 -15.76,17.95 -11.39,19.21 4.37,1.26 11.39,-19.21 11.39,-19.21 z"
         id="path92" />
      <path
         style="opacity:0.1"
         inkscape:connector-curvature="0"
         d="m 523.82811,238.77796 c -0.34,0.23001 -6.21,12.66001 -6.9,9.32 -0.69,-3.33999 5.06,9.09001 6,-0.11 z"
         id="path94" />
      <path
         style="opacity:0.1"
         inkscape:connector-curvature="0"
         d="m 553.65811,138.80796 c 0,0 6.41,-3.91 14.47,6.09 0,0 5.86,3.34 7.59,4.15 1.73,0.81 3.68,22.20001 3.68,22.20001 0,0 3.8,9.19999 2.76,14.5 -1.04,5.3 3,23.45999 3,23.45999 0,0 6.68,32.68 6.45,33.60001 -0.23,0.91999 -6.8,-10.24 -6.69,-15.74 0.11,-5.5 -5.52,-22.78001 -6.32,-23.82 -0.8,-1.04001 -6.33,-30.60001 -6.33,-30.60001 0,0 -4.49,-12.57999 -7.35,-16.7 -2.86,-4.12 -6.45,-12 -7.94,-13.34999 a 15.2,15.2 0 0 0 -3.57,-2.3 z"
         id="path96" />
      <path
         style="fill:#192534"
         inkscape:connector-curvature="0"
         d="m 553.56811,138.80796 c 0,0 7.19,-3.91 15.25,6.09 0,0 5.86,3.34 7.59,4.15 1.73,0.81 3.68,22.20001 3.68,22.20001 0,0 3.8,9.19999 2.76,14.5 -1.04,5.3 3,23.45999 3,23.45999 0,0 6.68,32.68 6.45,33.60001 -0.23,0.91999 -6.79,-10.24 -6.68,-15.76 0.11,-5.52001 -5.52,-22.78001 -6.32,-23.82 -0.8,-1.04 -6.33,-30.6 -6.33,-30.6 0,0 -4.49,-12.54 -7.36,-16.68001 -2.87,-4.13999 -6.45,-12 -7.94,-13.34999 a 14.23,14.23 0 0 0 -4.26,-2.3 z"
         id="path98" />
      <path
         style="opacity:0.1"
         inkscape:connector-curvature="0"
         d="m 575.62811,297.27796 c -2,4.38 -3.71,26.37 -4.86,33.35001 -1.64,-2.80001 -3.62,-6.16001 -4.28,-7.2 -0.85,-1.34 -2.89,-7 -4,-10.26 1.3,-3.16 4.89,-12.22001 4.89,-15.54 0,-4.06 6.56,-9.15 6.56,-9.15 a 7.61,7.61 0 0 1 1.69,8.79999 z"
         id="path100" />
      <path
         style="opacity:0.1"
         inkscape:connector-curvature="0"
         d="m 531.62811,364.83796 c 0,0 15.18,-6.47 19.67,-1.89999 4.49,4.57 -19.67,1.89999 -19.67,1.89999 z"
         id="path102" />
      <path
         style="opacity:0.1"
         inkscape:connector-curvature="0"
         d="m 540.16811,367.42797 c 0,0 -15.36,8.63 -10.09,10.1 5.27,1.47 10.09,-10.1 10.09,-10.1 z"
         id="path104" />
      <path
         style="opacity:0.1"
         inkscape:connector-curvature="0"
         d="m 586.06811,359.91797 c 0,0 -6.55,0.44 -4.05,1.73 2.5,1.29 4.05,-1.73 4.05,-1.73 z"
         id="path106" />
      <path
         style="opacity:0.1"
         inkscape:connector-curvature="0"
         d="m 594.26811,361.90796 c -0.09,0.43 -19.07,6.56 -15.36,9.32 3.71,2.76 15.36,-9.32 15.36,-9.32 z"
         id="path108" />
      <path
         style="opacity:0.1"
         inkscape:connector-curvature="0"
         d="m 533.91811,414.71796 c 2.85,-0.44 18.73,-7.77 12.51,-2.51 a 12.37,12.37 0 0 1 -12.51,2.51 z"
         id="path110" />
      <path
         style="opacity:0.1"
         inkscape:connector-curvature="0"
         d="m 541.71811,420.49797 c 0,0 1.38,5.35 6.65,4.66 5.27,-0.69 -6.65,-4.66 -6.65,-4.66 z"
         id="path112" />
      <path
         style="opacity:0.1"
         inkscape:connector-curvature="0"
         d="m 537.31811,431.36797 c 0.95,-0.26 12.26,-5.44 12.51,-3 0.25,2.44 -10.78,6.64 -11.64,5.35 a 4.62,4.62 0 0 1 -0.87,-2.35 z"
         id="path114" />
      <path
         style="opacity:0.1"
         inkscape:connector-curvature="0"
         d="m 573.91811,425.15796 c 1.38,-0.09 14.32,-4.23 16.91,-0.52 z"
         id="path116" />
      <path
         style="opacity:0.1"
         inkscape:connector-curvature="0"
         d="m 585.63811,427.56797 c 0,0 2.25,-2 4.49,-1 2.24,1 -4.49,1 -4.49,1 z"
         id="path118" />
      <path
         style="opacity:0.1"
         inkscape:connector-curvature="0"
         d="m 556.99811,448.96796 a 3.86,3.86 0 0 0 2.93,3 z"
         id="path120" />
      <path
         style="fill:#3f3d56"
         inkscape:connector-curvature="0"
         d="m 622.82811,457.06797 c -0.86,3.54 -12.94,3.87999 -18.72,2.93 -5.78,-0.95 -17.78,-4.4 -17.78,-4.4 0,0 -12.59,-1.2 -16.3,-2.76 -3.71,-1.56001 -0.78,-5.52 -0.78,-5.52 v -0.37001 c -0.09,-1.43999 -0.34,-6.68 0.55,-8.08999 1,-1.63 0.43,-7 0.43,-7 0,0 17.86,3.45 18.2,1.81 0.34,-1.64 3.11,-4 4.4,-4.49 1.29,-0.49 2.25,4.32 2.25,4.32 0,0 8.11,6.89999 8.63,9.39999 0.52,2.5 6.21,3.8 6.21,3.8 0,0 8.63,2.41001 10.87,3.62001 a 4.19,4.19 0 0 1 2.38,3.35 9.32,9.32 0 0 1 -0.34,3.4 z"
         id="path122" />
      <path
         style="opacity:0.1"
         inkscape:connector-curvature="0"
         d="m 622.82811,457.06797 c -0.86,3.54 -12.94,3.87999 -18.72,2.93 -5.78,-0.95 -17.78,-4.4 -17.78,-4.4 0,0 -12.59,-1.2 -16.3,-2.76 -3.71,-1.56001 -0.78,-5.52 -0.78,-5.52 v -0.37001 l 18.06,4 c 0,0 8.89,3.80001 14.58,3.80001 5,0 16.11,2 21.28,-1 a 9.32,9.32 0 0 1 -0.34,3.32 z"
         id="path124" />
      <path
         style="opacity:0.1"
         inkscape:connector-curvature="0"
         d="m 598.40811,443.44796 c 0,0 -0.86,5.69 -4.31,7.59 z"
         id="path126" />
      <path
         style="opacity:0.1"
         inkscape:connector-curvature="0"
         d="m 575.75811,104.55796 a 6.11,6.11 0 0 1 -1,0.43001 c -1.62,0.43 -3.2,-0.66 -4.64,-1.53 -1.44,-0.87001 -3.42,-1.52 -4.67,-0.39 -1.62,1.47 -0.44,4.62999 -2.11,6.04999 -1.06,0.90001 -2.74,0.59001 -3.92,1.33 -1.18,0.74 -1.53,2.36 -1.83,3.76001 -0.3,1.4 -0.89,3 -2.26,3.40999 -1.37,0.41 -2.65,-0.48999 -4,-0.43999 -0.28,0 -0.6,0.05 -0.79,-0.16 a 0.83,0.83 0 0 1 -0.14,-0.62 13.26,13.26 0 0 0 -0.43,-5 4.8,4.8 0 0 0 -3.51,-3.29001 c -2.42,-0.37 -4.46,1.75 -5.89,3.75 a 61.53,61.53 0 0 0 -4.08,6.57 4.15,4.15 0 0 0 -0.2,0.45 20.81,20.81 0 0 1 -1.79,-8.5 21.05,21.05 0 0 1 41.28,-5.83 z"
         id="path128" />
      <path
         style="fill:#192534"
         inkscape:connector-curvature="0"
         d="m 540.54811,111.51797 c 1.43,-2 3.46,-4.11 5.89,-3.74 a 4.74,4.74 0 0 1 3.48,3.29 13.08,13.08 0 0 1 0.44,5 0.85,0.85 0 0 0 0.14,0.63 c 0.19,0.2 0.51,0.17 0.79,0.16 1.35,0 2.7,0.83 4,0.44 1.3,-0.39 2,-2 2.27,-3.41 0.27,-1.41 0.61,-3 1.83,-3.76 1.22,-0.76001 2.85,-0.43001 3.92,-1.34 1.66,-1.42001 0.49,-4.57 2.11,-6.05 1.25,-1.12001 3.24,-0.48 4.67,0.39 1.43,0.87 3,2 4.64,1.53 a 15.42,15.42 0 0 0 1.57,-0.67 c 2.56,-1 5.88,0.68 8,-1.07 a 6.07,6.07 0 0 0 1.59,-2.76 17.35,17.35 0 0 0 1.17,-4.400005 5.91,5.91 0 0 0 -1.17,-4.28 c -1.37,-1.62 -3.68,-2 -5.43,-3.21 a 13.32,13.32 0 0 1 -3.47,-4.09 15.28,15.28 0 0 0 -3.37,-4.19 4.94,4.94 0 0 0 -5.07,-0.79 5.47,5.47 0 0 1 -1.66,0.78 3.39,3.39 0 0 1 -1.83,-0.5 c -6,-2.82 -12.95,-2.32 -19.51,-1.48 a 25.54,25.54 0 0 0 -7.69,1.86 9.23,9.23 0 0 0 -5.18,5.68 c -0.54,2 -0.13,4.23 -0.77,6.22 -0.44,1.36 -1.34,2.52 -1.85,3.85 -1.39,3.64 0.28,7.640005 1,11.470005 0.77,4.19 0.38,8.72 2.16,12.68 0.35,0.78 0.74,2.14 1.62,1.62999 0.65,-0.37999 1.28,-2.59 1.65,-3.28 a 62.55,62.55 0 0 1 4.06,-6.58999 z"
         id="path130" />
      <path
         style="opacity:0.1"
         inkscape:connector-curvature="0"
         d="m 502.66811,178.95796 -3.11,8.86001 c 0,0 7.36,27.37999 10.81,33.12999 3.45,5.75 8.55,13.12001 8.55,13.12001 a 31.57,31.57 0 0 0 18.4,2.31 c 9.9,-2 38.77,-7.14 38.77,-7.14 a 3.85,3.85 0 0 0 3.69,-1.38 c 1.26,-1.84001 7.82,-2.76 7.82,-2.76 0,0 7.59,-11 -1.73,-15.64 0,0 -1.15,2.53 -6.09,0.8 -4.94,-1.73 -6.45,1.38 -6.45,1.38 0,0 -8,1.61 -12.54,1 -4.54,-0.61 -15.64,-0.81 -16.79,-1.73 a 1.47,1.47 0 0 0 -2.08,0.16 12.68,12.68 0 0 1 -3.69,-2.08 c -0.92,-1 -2.18,1.16 -2.18,1.16 0,0 -1.61,-0.93 -1.15,-2.08 0.46,-1.15 -1.5,-5.52 -1.5,-5.52 a 11.12,11.12 0 0 1 -0.34,-5.17 c 0.57,-2.31 -2.88,-10.59 -2.88,-10.59 a 14.71,14.71 0 0 1 0.46,-4.14 c 0.58,-2.07 -4.37,-6.21 -4.37,-6.21 0,0 -4.83,-23.47 -15.07,-15.76 -10.24,7.71 -8.53,18.28 -8.53,18.27999 z"
         id="path132" />
      <path
         style="opacity:0.1"
         inkscape:connector-curvature="0"
         d="m 576.75811,215.99797 c -0.12,0.81 -2.65,4 -1.73,4.59999 0.92,0.6 2.42,0.23 1,2.08001 -1.42,1.84999 -1.26,4.59999 -0.34,4.25 0.92,-0.35001 2.42,-4.48001 2.42,-6.10001 a 18.09,18.09 0 0 0 -1.35,-4.82999 z"
         id="path134" />
      <g
         style="opacity:0.1"
         id="g140"
         transform="translate(496.73811,29.317965)">
        <path
           inkscape:connector-curvature="0"
           d="m 188,309 a 4.78,4.78 0 0 0 -3.5,-3.28 c -2.43,-0.37 -4.46,1.75 -5.89,3.75 a 61.53,61.53 0 0 0 -4.08,6.57 c -0.37,0.69 -1,2.89 -1.65,3.27 -0.88,0.52 -1.27,-0.85 -1.62,-1.63 -1.78,-3.95 -1.39,-8.49 -2.16,-12.68 a 71.57,71.57 0 0 1 -1.48,-7.39 c -0.27,3 0.91,6.17 1.48,9.23 0.77,4.19 0.38,8.73 2.16,12.69 0.35,0.77 0.74,2.14 1.62,1.62 0.65,-0.38 1.28,-2.58 1.65,-3.27 a 61.53,61.53 0 0 1 4.08,-6.57 c 1.43,-2 3.46,-4.12 5.89,-3.75 a 4.78,4.78 0 0 1 3.5,3.28 9.17,9.17 0 0 1 0.47,2.59 A 12,12 0 0 0 188,309 Z"
           transform="translate(-134.82,-229.25)"
           id="path136" />
        <path
           inkscape:connector-curvature="0"
           d="m 224,298.11 a 6.07,6.07 0 0 1 -1.59,2.76 c -2.1,1.76 -5.42,0.1 -8,1.08 a 15.34,15.34 0 0 1 -1.57,0.66 c -1.62,0.44 -3.2,-0.65 -4.64,-1.52 -1.44,-0.87 -3.42,-1.52 -4.67,-0.39 -1.62,1.47 -0.44,4.62 -2.11,6.05 -1.07,0.9 -2.74,0.59 -3.92,1.33 -1.18,0.74 -1.53,2.36 -1.83,3.76 -0.3,1.4 -0.89,3 -2.27,3.41 -1.38,0.41 -2.64,-0.49 -4,-0.44 -0.28,0 -0.6,0.05 -0.79,-0.16 a 0.59,0.59 0 0 1 -0.1,-0.17 c 0,0.46 0,0.93 0,1.39 a 0.83,0.83 0 0 0 0.14,0.62 c 0.19,0.21 0.51,0.17 0.79,0.16 1.35,0 2.7,0.83 4,0.44 1.3,-0.39 2,-2 2.27,-3.4 0.27,-1.4 0.61,-3 1.83,-3.77 1.22,-0.77 2.85,-0.43 3.92,-1.33 1.67,-1.42 0.49,-4.58 2.11,-6 1.25,-1.13 3.24,-0.48 4.67,0.39 1.43,0.87 3,2 4.64,1.53 0.55,-0.15 1,-0.47 1.57,-0.67 2.56,-1 5.88,0.68 8,-1.08 A 6.07,6.07 0 0 0 224,300 a 17.39,17.39 0 0 0 1.17,-4.39 7.21,7.21 0 0 0 0,-1.54 17.89,17.89 0 0 1 -1.17,4.04 z"
           transform="translate(-134.82,-229.25)"
           id="path138" />
      </g>
      <path
         style="fill:#fec2be"
         inkscape:connector-curvature="0"
         d="m 585.14811,210.70796 c 0,0 13.69,-9 20.31,-4.54 6.62,4.46001 17.43,10.7 6.79,15.24 -10.64,4.54 -25.33,3.66001 -25.33,3.66001 z"
         id="path148" />
      <path
         style="fill:#192534"
         inkscape:connector-curvature="0"
         d="m 501.97811,178.95796 -3.06,8.86001 c 0,0 7.36,27.37999 10.81,33.12999 3.45,5.75 8.47,13.12001 8.47,13.12001 a 31.57,31.57 0 0 0 18.4,2.31 c 9.9,-2 38.77,-7.14 38.77,-7.14 a 3.85,3.85 0 0 0 3.69,-1.38 c 1.26,-1.85 7.86,-2.79 7.86,-2.79 0,0 7.59,-11 -1.73,-15.64 0,0 -1.15,2.52999 -6.09,0.8 -4.94,-1.73 -6.45,1.38 -6.45,1.38 0,0 -8.05,1.61 -12.54,1 -4.49,-0.61 -15.64,-0.81 -16.79,-1.73 a 1.47,1.47 0 0 0 -2.07,0.12 12.68,12.68 0 0 1 -3.69,-2.08 c -0.92,-1 -2.18,1.15999 -2.18,1.15999 0,0 -1.61,-0.93 -1.15,-2.07999 0.46,-1.15001 -1.5,-5.52001 -1.5,-5.52001 a 11.12,11.12 0 0 1 -0.34,-5.16999 c 0.57,-2.31 -2.88,-10.59001 -2.88,-10.59001 a 14.71,14.71 0 0 1 0.46,-4.14 c 0.58,-2.06999 -4.37,-6.20999 -4.37,-6.20999 0,0 -4.83,-23.47001 -15.07,-15.76 -10.24,7.71 -8.55,18.34999 -8.55,18.34999 z"
         id="path150" />
    </g>
    <g
       style="fill:#ff3030;fill-opacity:1"
       inkscape:label="Layer 1"
       id="layer1"
       transform="matrix(1.17594,0,0,1.17594,107.16024,-78.454285)">
      <g
         style="fill:#ff3030;fill-opacity:1"
         id="g862"
         transform="translate(-383.29289,167.43442)">
        <path
           style="opacity:1;fill:#ff3030;fill-opacity:1;stroke:none;stroke-width:0.26571283px;stroke-linecap:butt;stroke-linejoin:miter;stroke-opacity:1"
           d="m 383.29289,153.42985 c 23.13779,-39.44357 55.0833,-67.704448 66.14584,-66.145822 13.96891,0.0236 -27.7478,42.501932 13.22916,66.145822 h -79.375"
           id="path856"
           inkscape:connector-curvature="0"
           sodipodi:nodetypes="cccc" />
      </g>
    </g>
  </g>
</svg>
