<?xml version="1.0" encoding="UTF-8" standalone="no"?>
<svg
   xmlns:dc="http://purl.org/dc/elements/1.1/"
   xmlns:cc="http://creativecommons.org/ns#"
   xmlns:rdf="http://www.w3.org/1999/02/22-rdf-syntax-ns#"
   xmlns:svg="http://www.w3.org/2000/svg"
   xmlns="http://www.w3.org/2000/svg"
   xmlns:sodipodi="http://sodipodi.sourceforge.net/DTD/sodipodi-0.dtd"
   xmlns:inkscape="http://www.inkscape.org/namespaces/inkscape"
   id="b7d53209-d177-4d97-8fa5-97496651953b"
   data-name="Layer 1"
   width="800"
   height="600"
   viewBox="0 0 800 599.99998"
   version="1.1"
   sodipodi:docname="move_page.svg"
   inkscape:version="0.92.4 (5da689c313, 2019-01-14)">
  <metadata
     id="metadata119">
    <rdf:RDF>
      <cc:Work
         rdf:about="">
        <dc:format>image/svg+xml</dc:format>
        <dc:type
           rdf:resource="http://purl.org/dc/dcmitype/StillImage" />
        <dc:title>feedback</dc:title>
      </cc:Work>
    </rdf:RDF>
  </metadata>
  <defs
     id="defs117" />
  <sodipodi:namedview
     pagecolor="#ffffff"
     bordercolor="#666666"
     borderopacity="1"
     objecttolerance="10"
     gridtolerance="10"
     guidetolerance="10"
     inkscape:pageopacity="0"
     inkscape:pageshadow="2"
     inkscape:window-width="1920"
     inkscape:window-height="986"
     id="namedview115"
     showgrid="false"
     inkscape:zoom="0.60048013"
     inkscape:cx="-52.921305"
     inkscape:cy="430.03862"
     inkscape:window-x="-11"
     inkscape:window-y="-11"
     inkscape:window-maximized="1"
     inkscape:current-layer="b7d53209-d177-4d97-8fa5-97496651953b" />
  <title
     id="title2">feedback</title>
  <rect
     y="246.50742"
     width="745.03815"
     height="353.49255"
     id="rect4"
     x="-7.2e-07"
     style="fill:#ff3030;stroke-width:0.76335877" />
  <rect
     x="123.17164"
     y="389.70694"
     width="498.69492"
     height="210.29301"
     id="rect6"
     style="fill:#f0f0f0;stroke-width:0.76335877" />
  <rect
     x="123.17164"
     y="402.53879"
     width="498.69492"
     height="2.002794"
     id="rect8"
     style="fill:#3f3d56;stroke-width:0.76335877" />
  <circle
     cx="132.1609"
     cy="396.69342"
     r="3.5863895"
     id="circle10"
     style="fill:#3f3d56;stroke-width:0.76335877" />
  <circle
     cx="144.45711"
     cy="396.69342"
     r="3.5863895"
     id="circle12"
     style="fill:#3f3d56;stroke-width:0.76335877" />
  <circle
     cx="156.75331"
     cy="396.69342"
     r="3.5863895"
     id="circle14"
     style="fill:#3f3d56;stroke-width:0.76335877" />
  <polygon
     points="499.654,667.511 515.206,665.252 522.161,651.159 529.116,665.252 544.668,667.511 533.415,678.481 536.071,693.97 522.161,686.657 508.251,693.97 510.907,678.481 "
     id="polygon16"
     style="fill:#ff3030"
     transform="matrix(0.76335878,0,0,0.76335878,-7.2e-7,-0.02875117)" />
  <polygon
     points="562.229,667.511 577.781,665.252 584.736,651.159 591.691,665.252 607.243,667.511 595.989,678.481 598.646,693.97 584.736,686.657 570.826,693.97 573.482,678.481 "
     id="polygon18"
     style="fill:#ff3030"
     transform="matrix(0.76335878,0,0,0.76335878,-7.2e-7,-0.02875117)" />
  <polygon
     points="624.804,667.511 640.356,665.252 647.311,651.159 654.266,665.252 669.818,667.511 658.564,678.481 661.221,693.97 647.311,686.657 633.401,693.97 636.057,678.481 "
     id="polygon20"
     style="fill:#ff3030"
     transform="matrix(0.76335878,0,0,0.76335878,-7.2e-7,-0.02875117)" />
  <polygon
     points="687.379,667.511 702.931,665.252 709.886,651.159 716.841,665.252 732.393,667.511 721.139,678.481 723.796,693.97 709.886,686.657 695.976,693.97 698.632,678.481 "
     id="polygon22"
     style="fill:#ff3030"
     transform="matrix(0.76335878,0,0,0.76335878,-7.2e-7,-0.02875117)" />
  <polygon
     points="749.954,667.511 765.506,665.252 772.461,651.159 779.416,665.252 794.968,667.511 783.714,678.481 786.371,693.97 772.461,686.657 758.55,693.97 761.207,678.481 "
     id="polygon24"
     style="fill:#ff3030"
     transform="matrix(0.76335878,0,0,0.76335878,-7.2e-7,-0.02875117)" />
  <rect
     x="157.21907"
     y="451.79346"
     width="194.27069"
     height="123.17164"
     id="rect26"
     style="fill:#3f3d56;stroke-width:0.76335877" />
  <polygon
     points="257.853,322.962 0,499.98 0,409.294 125.752,322.962 "
     id="polygon28"
     style="opacity:0.1"
     transform="matrix(0.76335878,0,0,0.76335878,-7.2e-7,-0.02875117)" />
  <polygon
     points="551.112,322.962 0,701.307 0,610.607 419.011,322.962 "
     id="polygon30"
     style="opacity:0.1"
     transform="matrix(0.76335878,0,0,0.76335878,-7.2e-7,-0.02875117)" />
  <path
     d="m 113.80244,347.28924 -13.48388,-14.45636 14.45636,-13.48391 13.48386,14.45639 z m -11.33463,-14.38155 11.40944,12.2323 12.2323,-11.40944 -11.40944,-12.2323 z"
     id="path32"
     inkscape:connector-curvature="0"
     style="fill:#f0f0f0;stroke-width:0.76335877" />
  <path
     d="m 558.77863,338.19649 h -19.76871 v -19.7687 h 19.76871 z m -18.24803,-1.52067 h 16.72735 V 319.94846 H 540.5306 Z"
     id="path34"
     inkscape:connector-curvature="0"
     style="fill:#3f3d56;stroke-width:0.76335877" />
  <circle
     cx="681.2594"
     cy="496.81256"
     r="10.092672"
     id="circle36"
     style="fill:#f0f0f0;stroke-width:0.76335877" />
  <path
     d="m 681.2594,525.96917 a 29.156611,29.156611 0 1 1 29.15663,-29.15661 29.189313,29.189313 0 0 1 -29.15663,29.15661 z m 0,-56.07041 a 26.913794,26.913794 0 1 0 26.91381,26.9138 26.944634,26.944634 0 0 0 -26.91381,-26.9138 z"
     id="path38"
     inkscape:connector-curvature="0"
     style="fill:#2f2e41;stroke-width:0.76335877" />
  <path
     d="m 229.31956,547.96377 c 4.63601,17.13745 20.51536,27.7511 20.51536,27.7511 0,0 8.36291,-17.17164 3.72691,-34.30909 -4.636,-17.13745 -20.51536,-27.7511 -20.51536,-27.7511 0,0 -8.36291,17.17164 -3.72691,34.30909 z"
     id="path40"
     inkscape:connector-curvature="0"
     style="fill:#ffffff;stroke-width:0.76335877" />
  <path
     d="m 236.13185,544.28075 c 12.72125,12.38362 14.27506,31.42015 14.27506,31.42015 0,0 -19.07142,-1.04131 -31.79268,-13.42494 -12.72126,-12.38363 -14.27506,-31.42011 -14.27506,-31.42011 0,0 19.07142,1.04126 31.79268,13.4249 z"
     id="path42"
     inkscape:connector-curvature="0"
     style="fill:#ff3030;stroke-width:0.76335877" />
  <path
     d="m 271.49425,547.96377 c -4.636,17.13745 -20.51535,27.7511 -20.51535,27.7511 0,0 -8.36291,-17.17164 -3.72691,-34.30909 4.636,-17.13745 20.51536,-27.7511 20.51536,-27.7511 0,0 8.36291,17.17164 3.7269,34.30909 z"
     id="path44"
     inkscape:connector-curvature="0"
     style="fill:#ffffff;stroke-width:0.76335877" />
  <path
     d="m 264.68198,544.28075 c -12.72126,12.38362 -14.27507,31.42015 -14.27507,31.42015 0,0 19.07143,-1.04131 31.79268,-13.42494 12.72125,-12.38363 14.27507,-31.42011 14.27507,-31.42011 0,0 -19.07142,1.04126 -31.79268,13.4249 z"
     id="path46"
     inkscape:connector-curvature="0"
     style="fill:#ff3030;stroke-width:0.76335877" />
  <rect
     x="567.9389"
     y="19.05522"
     width="78.625954"
     height="91.60305"
     id="rect48"
     style="fill:#f2f2f2;stroke-width:0.76335877" />
  <path
     d="m 619.83282,247.56526 -1.09248,-1.06642 a 55.806557,55.806557 0 0 0 11.19245,-19.58081 c 3.71429,-11.17792 5.52876,-28.8313 -6.92204,-49.45283 -12.73893,-21.09897 -13.31222,-38.23615 -11.55028,-48.89708 1.91772,-11.60022 6.80985,-18.10256 7.0171,-18.37354 l 1.21324,0.92699 c -0.0489,0.0637 -4.89847,6.53141 -6.73865,17.78573 -1.69892,10.39033 -1.10627,27.11229 11.3654,47.76845 12.76911,21.14891 10.87749,39.29248 7.04243,50.78871 -4.15564,12.45603 -11.22789,19.79444 -11.52717,20.1008 z"
     id="path50"
     inkscape:connector-curvature="0"
     style="fill:#3f3d56;stroke-width:0.76335877" />
  <path
     d="M 677.09924,111.42163 H 567.17557 V 1.4979664 H 677.09924 Z M 568.70229,109.89491 H 675.57252 V 3.0246839 H 568.70229 Z"
     id="path52"
     inkscape:connector-curvature="0"
     style="fill:#3f3d56;stroke-width:0.76335877" />
  <rect
     x="590.07635"
     y="33.559036"
     width="67.175575"
     height="1.5267175"
     id="rect54"
     style="fill:#3f3d56;stroke-width:0.76335877" />
  <rect
     x="590.07635"
     y="50.352928"
     width="67.175575"
     height="1.5267175"
     id="rect56"
     style="fill:#3f3d56;stroke-width:0.76335877" />
  <rect
     x="590.07635"
     y="67.14682"
     width="67.175575"
     height="1.5267175"
     id="rect58"
     style="fill:#3f3d56;stroke-width:0.76335877" />
  <rect
     x="690.83972"
     y="85.46743"
     width="78.625954"
     height="91.60305"
     id="rect60"
     style="fill:#f2f2f2;stroke-width:0.76335877" />
  <path
     d="m 742.73359,313.97747 -1.09252,-1.06641 a 55.806557,55.806557 0 0 0 11.19244,-19.58082 c 3.71435,-11.17791 5.52878,-28.8313 -6.92198,-49.45283 -12.73893,-21.09897 -13.31222,-38.23614 -11.55031,-48.89708 1.91771,-11.60022 6.80985,-18.10256 7.0171,-18.37354 l 1.21328,0.92699 c -0.0489,0.0637 -4.89847,6.53142 -6.7387,17.78574 -1.69893,10.39033 -1.10626,27.11228 11.36542,47.76844 12.76909,21.14892 10.87748,39.29248 7.04244,50.78871 -4.15564,12.45603 -11.22786,19.79444 -11.52717,20.1008 z"
     id="path62"
     inkscape:connector-curvature="0"
     style="fill:#3f3d56;stroke-width:0.76335877" />
  <path
     d="M 800,177.83385 H 690.07634 V 67.910181 H 800 Z M 691.60305,176.30713 H 798.47328 V 69.436899 H 691.60305 Z"
     id="path64"
     inkscape:connector-curvature="0"
     style="fill:#3f3d56;stroke-width:0.76335877" />
  <rect
     x="712.97711"
     y="99.971252"
     width="67.175575"
     height="1.5267175"
     id="rect66"
     style="fill:#3f3d56;stroke-width:0.76335877" />
  <rect
     x="712.97711"
     y="116.76514"
     width="67.175575"
     height="1.5267175"
     id="rect68"
     style="fill:#3f3d56;stroke-width:0.76335877" />
  <rect
     x="712.97711"
     y="133.55904"
     width="67.175575"
     height="1.5267175"
     id="rect70"
     style="fill:#3f3d56;stroke-width:0.76335877" />
  <path
     d="m 158.00076,246.03854 -1.09249,-1.06641 a 55.806557,55.806557 0 0 0 11.19245,-19.58082 c 3.7143,-11.17791 5.52877,-28.8313 -6.92203,-49.45283 -12.73893,-21.09897 -13.31222,-38.23615 -11.55028,-48.89708 1.91772,-11.60022 6.80985,-18.10256 7.01709,-18.37354 l 1.21325,0.92699 c -0.0489,0.0637 -4.89848,6.53142 -6.73865,17.78574 -1.69892,10.39032 -1.10628,27.11228 11.3654,47.76844 12.76911,21.14891 10.87748,39.29248 7.04242,50.78871 -4.15563,12.45603 -11.22788,19.79444 -11.52716,20.1008 z"
     id="path74"
     inkscape:connector-curvature="0"
     style="fill:#3f3d56;stroke-width:0.76335877" />
  <g
     id="g999"
     transform="translate(0,0.02875117)">
    <rect
       style="fill:#f2f2f2;stroke-width:0.76335877"
       id="rect72"
       height="91.60305"
       width="78.625954"
       y="17.528502"
       x="106.10687" />
    <path
       style="fill:#3f3d56;stroke-width:0.76335877"
       inkscape:connector-curvature="0"
       id="path76"
       d="M 215.26718,109.89491 H 105.34351 V -0.02875117 H 215.26718 Z M 106.87023,108.3682 H 213.74046 V 1.4979664 H 106.87023 Z" />
    <rect
       style="fill:#3f3d56;stroke-width:0.76335877"
       id="rect78"
       height="1.5267175"
       width="67.175575"
       y="32.032318"
       x="128.24428" />
    <rect
       style="fill:#3f3d56;stroke-width:0.76335877"
       id="rect80"
       height="1.5267175"
       width="67.175575"
       y="48.82621"
       x="128.24428" />
    <rect
       style="fill:#3f3d56;stroke-width:0.76335877"
       id="rect82"
       height="1.5267175"
       width="67.175575"
       y="65.620102"
       x="128.24428" />
  </g>
  <path
     d="m 377.55937,36.926127 h 5e-5 c 18.34504,0 33.21661,16.504191 33.21661,36.863138 v 25.86626 h -7.95527 l -4.60565,-9.583657 1.15142,9.583657 h -51.13345 l -4.18697,-8.712413 1.04673,8.712413 h -5.75707 V 79.345876 c 0,-23.427757 17.11329,-42.419749 38.2236,-42.419749 z"
     id="path86"
     inkscape:connector-curvature="0"
     style="fill:#2f2e41;stroke-width:0.76335877" />
  <path
     d="m 415.61978,205.92252 20.39472,8.66777 70.87167,57.61508 a 20.859473,20.859473 0 0 1 4.58881,11.2171 c 0.50987,6.62824 21.92433,41.29931 14.27633,45.88812 -7.64799,4.58881 -35.18091,18.35525 -36.71049,9.17763 -1.52958,-9.17763 -9.6875,-48.43747 -9.6875,-48.43747 L 411.031,228.86659 Z"
     id="path88"
     inkscape:connector-curvature="0"
     style="fill:#2f2e41;stroke-width:0.76335877" />
  <path
     d="m 495.66906,330.8402 8.66776,25.4934 c 0,0 -9.17763,9.6875 -4.58881,17.84538 v 28.04275 h 7.13817 l 2.03947,-14.78618 c 0,0 8.13039,14.59938 12.23683,14.78618 8.60853,0.3916 25.65591,3.4537 26.16578,-1.13511 0.50987,-4.58881 -12.90921,-9.06226 -12.90921,-9.06226 l -14.27634,-39.25984 -6.11841,-23.96379 z"
     id="path90"
     inkscape:connector-curvature="0"
     style="fill:#2f2e41;stroke-width:0.76335877" />
  <path
     d="m 362.5935,199.29424 c 0,0 -4.58881,44.86839 8.66775,53.02628 13.25657,8.15788 71.89142,34.16116 71.89142,34.16116 0,0 -24.98353,23.45393 -19.88485,29.06248 5.09868,5.60855 28.04274,20.90458 31.10195,17.84538 3.05921,-3.0592 37.22037,-39.76971 33.14142,-51.49667 -4.07895,-11.72696 -60.6743,-49.96707 -60.6743,-49.96707 l -6.62824,-23.9638 -2.03947,-19.37499 -21.41446,-13.76641 z"
     id="path92"
     inkscape:connector-curvature="0"
     style="fill:#2f2e41;stroke-width:0.76335877" />
  <circle
     cx="385.95303"
     cy="73.573753"
     r="21.255543"
     id="circle94"
     style="fill:#ffb9b9;stroke-width:0.76335877" />
  <path
     d="m 369.47672,82.279509 c 0,0 1.01973,19.374981 -14.78618,25.493401 -15.80591,6.11842 39.25984,45.88814 39.25984,45.88814 v -44.35852 c 0,0 -7.13817,-7.64802 0,-19.374983 z"
     id="path96"
     inkscape:connector-curvature="0"
     style="fill:#ffb9b9;stroke-width:0.76335877" />
  <g
     inkscape:label="Layer 1"
     id="g980"
     transform="matrix(0.75377216,-0.20197264,0.20197264,0.75377216,266.34746,110.48724)">
    <g
       id="g978"
       transform="translate(-383.29289,167.43442)">
      <path
         style="opacity:1;fill:#ffffff;stroke:none;stroke-width:0.26571283px;stroke-linecap:butt;stroke-linejoin:miter;stroke-opacity:1"
         d="m 383.29289,129.56559 c 23.13779,-39.443576 55.0833,-67.704449 66.14584,-66.145823 13.96891,0.0236 -27.7478,42.501933 13.22916,66.145823 h -79.375"
         id="path976"
         inkscape:connector-curvature="0"
         sodipodi:nodetypes="cccc" />
    </g>
  </g>
  <path
     d="m 335.57049,173.29096 4.07895,19.88485 12.23682,68.32233 c 0,0 -10.19736,29.06248 3.56908,28.55261 13.76643,-0.50987 7.13816,-31.61181 7.13816,-31.61181 l -7.13816,-56.59535 v -21.92433 z"
     id="path98"
     inkscape:connector-curvature="0"
     style="fill:#ffb9b9;stroke-width:0.76335877" />
  <path
     d="m 423.26779,163.60348 4.58882,17.84538 20.90458,50.47694 c 0,0 14.27634,23.96379 2.54934,23.45393 -11.72699,-0.50986 -11.72697,-23.45393 -11.72697,-23.45393 l -23.96379,-40.78944 v -22.94407 z"
     id="path100"
     inkscape:connector-curvature="0"
     style="fill:#ffb9b9;stroke-width:0.76335877" />
  <path
     d="m 426.83687,312.48495 -16.82564,15.80591 c 0,0 -11.72697,-2.54934 -16.31578,11.2171 -4.58881,13.76644 -7.64802,22.43419 -7.64802,22.43419 l 6.11842,3.56908 7.64801,-10.70723 c 0,0 4.58882,19.37498 9.17763,20.90458 4.58881,1.52959 27.53288,11.72696 25.4934,0 l -11.2171,-16.31578 c 0,0 -1.5296,-18.35525 3.05922,-19.88486 4.58881,-1.5296 16.82566,-16.82563 16.82566,-16.82563 z"
     id="path102"
     inkscape:connector-curvature="0"
     style="fill:#2f2e41;stroke-width:0.76335877" />
  <path
     d="m 361.78522,215.10012 c 0,0 47.9276,-17.33551 50.98681,-15.80591 a 22.99284,22.99284 0 0 0 7.18163,1.86396 l -0.0434,-6.96264 c 0,0 -15.80591,-5.60855 -24.47367,-2.03947 -8.66776,3.56908 -35.18092,19.37498 -35.18092,19.37498 z"
     id="path104"
     inkscape:connector-curvature="0"
     style="fill:#3f3d56;stroke-width:0.76335877" />
  <path
     d="m 390.89118,143.46369 c 0,0 -13.76642,-15.80591 -17.84539,-25.4934 a 25.031061,25.031061 0 0 0 -13.23305,-13.01235 c 0,0 -30.6156,6.8939 -30.10573,19.13077 0.50987,12.23687 19.37498,31.10194 19.37498,31.10194 0,0 -2.54933,67.81245 11.2171,66.79272 a 29.528504,29.528504 0 0 0 6.11842,-12.23683 c 1.5296,-7.13817 48.94733,-14.78618 48.94733,-14.78618 0,0 4.07895,7.13817 4.58882,4.07895 0.50987,-3.05922 -4.07895,-78.00982 -4.07895,-78.00982 l -24.31405,-16.07155 z"
     id="path106"
     inkscape:connector-curvature="0"
     style="fill:#d0cde1;stroke-width:0.76335877" />
  <path
     d="m 333.63453,119.16318 -0.34142,0.1916 a 7.0342901,7.0342901 0 0 0 -3.59183,6.13538 l 0.005,37.83881 a 7.0898397,7.0898397 0 0 1 -2.52207,5.39603 c -1.96406,1.6706 -3.78535,4.07792 -0.0268,5.33078 6.11842,2.03948 30.08222,12.23684 30.59208,8.66776 0.50987,-3.56908 1.52962,-7.64802 0,-7.64802 -1.19748,0 -8.33234,-36.56172 -14.06529,-52.19413 a 7.035458,7.035458 0 0 0 -10.04993,-3.71821 z"
     id="path108"
     inkscape:connector-curvature="0"
     style="fill:#d0cde1;stroke-width:0.76335877" />
  <path
     d="m 408.99149,119.24496 7.13817,2.03947 8.15789,35.18092 c 0,0 9.68749,2.03947 6.62824,5.60855 -3.05924,3.56908 -15.80587,12.74668 -15.80587,12.74668 z"
     id="path110"
     inkscape:connector-curvature="0"
     style="fill:#d0cde1;stroke-width:0.76335877" />
  <path
     d="m 368.1165,47.080699 a 17.420519,17.420519 0 0 1 13.74531,-7.014336 h 0.65214 c 12.57371,0 22.76668,11.377764 22.76668,25.412978 v 5.3e-5 h -4.21313 l -0.68041,-5.179031 -0.99761,5.179031 h -24.98779 l -2.0935,-4.381557 0.52339,4.381557 h -4.91582 q -3.44083,17.088069 9.88784,34.176138 h -8.37397 l -4.18696,-8.763114 1.04673,8.763114 h -15.96283 l -3.14023,-20.155214 c 0,-15.09439 8.77029,-27.894092 20.93016,-32.419619 z"
     id="path112"
     inkscape:connector-curvature="0"
     style="fill:#2f2e41;stroke-width:0.76335877" />
  <g
     transform="matrix(1.4363194,0,0,1.4363194,41.9247,-60.206461)"
     id="layer1"
     inkscape:label="Layer 1">
    <g
       transform="translate(-383.29289,167.43442)"
       id="g862">
      <path
         sodipodi:nodetypes="cccc"
         inkscape:connector-curvature="0"
         id="path856"
         d="m 383.29289,129.56559 c 23.13779,-39.443576 55.0833,-67.704449 66.14584,-66.145823 13.96891,0.0236 -27.7478,42.501933 13.22916,66.145823 h -79.375"
         style="opacity:1;fill:#ffffff;stroke:none;stroke-width:0.26571283px;stroke-linecap:butt;stroke-linejoin:miter;stroke-opacity:1" />
    </g>
  </g>
</svg>
