<?xml version="1.0" encoding="UTF-8" standalone="no"?>
<!-- Created with Inkscape (http://www.inkscape.org/) -->

<svg
   xmlns:dc="http://purl.org/dc/elements/1.1/"
   xmlns:cc="http://creativecommons.org/ns#"
   xmlns:rdf="http://www.w3.org/1999/02/22-rdf-syntax-ns#"
   xmlns:svg="http://www.w3.org/2000/svg"
   xmlns="http://www.w3.org/2000/svg"
   xmlns:sodipodi="http://sodipodi.sourceforge.net/DTD/sodipodi-0.dtd"
   xmlns:inkscape="http://www.inkscape.org/namespaces/inkscape"
   width="800"
   height="600"
   viewBox="0 0 211.66666 158.75"
   version="1.1"
   id="svg8"
   inkscape:version="0.92.4 (5da689c313, 2019-01-14)"
   sodipodi:docname="socials.svg">
  <defs
     id="defs2">
    <linearGradient
       gradientTransform="matrix(0.35277779,0,0,0.35277779,-164.87931,-23.162227)"
       id="a"
       gradientUnits="userSpaceOnUse"
       x1="42.966156"
       x2="469.03375"
       y1="469.02963"
       y2="42.962055">
      <stop
         offset="0"
         stop-color="#ffd600"
         id="stop2" />
      <stop
         offset=".5"
         stop-color="#ff0100"
         id="stop4" />
      <stop
         offset="1"
         stop-color="#d800b9"
         id="stop6" />
    </linearGradient>
    <linearGradient
       gradientTransform="matrix(0.35277779,0,0,0.35277779,-164.87931,-23.162227)"
       id="b"
       gradientUnits="userSpaceOnUse"
       x1="163.043"
       x2="348.95392"
       y1="348.9538"
       y2="163.04289">
      <stop
         offset="0"
         stop-color="#ff6400"
         id="stop9" />
      <stop
         offset=".5"
         stop-color="#ff0100"
         id="stop11" />
      <stop
         offset="1"
         stop-color="#fd0056"
         id="stop13" />
    </linearGradient>
    <linearGradient
       gradientTransform="matrix(0.35277779,0,0,0.35277779,-164.87931,-23.162227)"
       id="c"
       gradientUnits="userSpaceOnUse"
       x1="370.92914"
       x2="414.37277"
       y1="141.06767"
       y2="97.624016">
      <stop
         offset="0"
         stop-color="#f30072"
         id="stop16" />
      <stop
         offset="1"
         stop-color="#e50097"
         id="stop18" />
    </linearGradient>
  </defs>
  <sodipodi:namedview
     id="base"
     pagecolor="#ffffff"
     bordercolor="#666666"
     borderopacity="1.0"
     inkscape:pageopacity="0.0"
     inkscape:pageshadow="2"
     inkscape:zoom="0.49497475"
     inkscape:cx="375.49585"
     inkscape:cy="40.537218"
     inkscape:document-units="px"
     inkscape:current-layer="layer1"
     showgrid="false"
     units="px"
     inkscape:window-width="1920"
     inkscape:window-height="986"
     inkscape:window-x="-11"
     inkscape:window-y="-11"
     inkscape:window-maximized="1" />
  <metadata
     id="metadata5">
    <rdf:RDF>
      <cc:Work
         rdf:about="">
        <dc:format>image/svg+xml</dc:format>
        <dc:type
           rdf:resource="http://purl.org/dc/dcmitype/StillImage" />
        <dc:title></dc:title>
      </cc:Work>
    </rdf:RDF>
  </metadata>
  <g
     inkscape:label="Layer 1"
     inkscape:groupmode="layer"
     id="layer1"
     transform="translate(0,-138.24999)">
    <g
       id="g953"
       transform="matrix(1.0072283,0,0,1.0072283,-0.09875502,-7.4993177)">
      <g
         transform="translate(17.753103,94.800986)"
         id="g1208">
        <ellipse
           style="fill:#e6e6e6;stroke-width:0.26458332"
           cx="87.41877"
           cy="194.59758"
           rx="105.07383"
           ry="7.4626307"
           id="ellipse94" />
        <path
           inkscape:connector-curvature="0"
           style="fill:#ff3030;stroke-width:0.26458332"
           d="m 169.5077,198.77665 c -17.13313,-3.04944 -35.86888,-2.54252 -55.52197,0 8.95759,-7.56214 16.68849,-15.12426 7.73091,-22.6864 17.47289,3.60469 19.92026,3.23985 39.35734,0 -4.50831,7.56214 3.9254,15.12426 8.43372,22.6864 z"
           id="path96" />
        <path
           inkscape:connector-curvature="0"
           style="opacity:0.2;stroke-width:0.26458332"
           d="m 169.5077,198.77665 c -17.13313,-3.04944 -35.86888,-2.54252 -55.52197,0 8.95759,-7.56214 16.68849,-15.12426 7.73091,-22.6864 17.47289,3.60469 19.92026,3.23985 39.35734,0 -4.50831,7.56214 3.9254,15.12426 8.43372,22.6864 z"
           id="path98" />
        <path
           inkscape:connector-curvature="0"
           style="fill:#ff3030;stroke-width:0.26458332"
           d="m 165.32863,195.5504 c -14.55395,-2.43412 -30.46927,-2.02949 -47.16383,0 7.60914,-6.03625 14.17626,-12.0725 6.56711,-18.10875 14.84256,2.87734 16.92152,2.58611 33.43258,0 -3.82963,6.03625 3.33449,12.0725 7.16414,18.10875 z"
           id="path100" />
        <circle
           style="fill:#2f2e41;stroke-width:0.26458332"
           cx="159.7852"
           cy="178.06984"
           r="7.7546968"
           id="circle102" />
        <polygon
           transform="matrix(0.26458333,0,0,0.26458333,-17.655058,45.713591)"
           style="fill:#a0616a"
           points="504.873,466.249 536.463,466.249 537.591,466.249 557.899,469.634 568.053,498.967 538.72,517.019 "
           id="polygon104" />
        <circle
           style="fill:#a0616a;stroke-width:0.26458332"
           cx="139.80644"
           cy="168.47836"
           r="12.537218"
           id="circle106" />
        <path
           inkscape:connector-curvature="0"
           style="fill:#2f2e41;stroke-width:0.26458332"
           d="m 70.553229,122.80707 c 0,0 -30.447531,3.28356 -35.820615,2.68655 -5.373084,-0.59701 -7.761134,-1.19402 -7.761134,-1.19402 0,0 -3.582064,4.77608 -1.791031,6.86562 a 12.917469,12.917469 0 0 0 3.582062,2.98505 c 0,0 3.283556,-0.89552 5.671608,0 2.388052,0.89552 26.566963,4.77608 30.746036,1.19402 4.179072,-3.58206 5.373074,-12.53722 5.373074,-12.53722 z"
           id="path108" />
        <path
           inkscape:connector-curvature="0"
           style="fill:#2f2e41;stroke-width:0.26458332"
           d="m 72.642765,189.37373 c 0,0 -19.999854,-5.67161 -23.58191,-30.74603 v -2.38805 c 0,0 -3.957149,6.94222 -5.373095,8.35816 -1.64178,1.64177 -7.462631,16.41778 -7.164123,17.91031 0.298508,1.49252 0,2.08953 0,2.08953 l -8.656651,-0.89551 v -2.68655 c 0,0 4.626832,-13.88049 4.925338,-17.16405 0.298505,-3.28356 11.492442,-26.11921 11.492442,-26.11921 0,0 4.179072,-8.65665 11.343198,0 7.164125,8.65665 7.761134,14.62676 7.761134,14.62676 l 9.253662,17.91031 z"
           id="path110" />
        <path
           inkscape:connector-curvature="0"
           style="fill:#2f2e41;stroke-width:0.26458332"
           d="m 27.866983,123.40408 -9.552164,-3.28356 c 0,0 -8.9551566,-6.56711 -6.86562,0 2.089536,6.56712 11.641701,20.89537 14.328245,19.40284 2.686545,-1.49252 5.917542,-5.19726 5.19756,-5.73293 -0.719981,-0.53568 -5.496062,-4.41624 -3.108021,-10.38635 z"
           id="path112" />
        <path
           inkscape:connector-curvature="0"
           style="fill:#2f2e41;stroke-width:0.26458332"
           d="m 29.021591,179.25328 -7.710967,3.76581 c 0,0 -9.324885,1.4346 -4.124468,4.12447 5.200418,2.68988 19.546398,5.55907 20.263697,3.04853 0.717299,-2.51053 0.432702,-6.67713 -0.321622,-6.56641 -0.754325,0.11072 -5.954744,0.64869 -8.10664,-4.3724 z"
           id="path114" />
        <path
           inkscape:connector-curvature="0"
           style="fill:#575a89;stroke-width:0.26458332"
           d="m 68.762195,169.67239 c 0,0 -3.880567,16.71629 2.686548,20.29835 6.567114,3.58207 52.536917,4.17908 56.118967,-2.38805 3.58206,-6.56712 1.79104,-6.56711 1.79104,-6.56711 l -9.55217,-10.74619 7.76113,-0.597 c 0,0 0,-2.38804 -2.68654,-2.68655 -2.68654,-0.2985 -11.04469,-3.28355 -18.20882,-1.19402 -7.164118,2.08954 -11.343198,-4.17907 -11.343198,-4.17907 z"
           id="path116" />
        <polygon
           transform="matrix(0.26458333,0,0,0.26458333,-17.655058,45.713591)"
           style="fill:#3f3d56"
           points="307.437,271.069 288.257,375.993 420.258,360.198 443.95,265.428 "
           id="polygon118" />
        <polygon
           transform="matrix(0.26458333,0,0,0.26458333,-17.655058,45.713591)"
           style="fill:#ffffff"
           points="311.386,275.018 295.591,368.659 415.745,354.557 438.873,269.377 "
           id="polygon120" />
        <polygon
           transform="matrix(0.26458333,0,0,0.26458333,-17.655058,45.713591)"
           style="fill:#b3b3b3"
           points="325.499,479.618 326.616,473.019 292.77,377.121 288.257,375.993 286.001,380.505 322.104,480.916 "
           id="polygon122" />
        <polygon
           transform="matrix(0.26458333,0,0,0.26458333,-17.655058,45.713591)"
           style="fill:#d0cde1"
           points="288.257,374.864 324.36,479.788 460.873,459.48 420.258,360.198 "
           id="polygon124" />
        <polygon
           transform="matrix(0.26458333,0,0,0.26458333,-17.655058,45.713591)"
           style="fill:#3f3d56"
           points="306.309,371.48 306.309,377.121 406.719,365.839 405.591,360.198 "
           id="polygon126" />
        <polygon
           transform="matrix(0.26458333,0,0,0.26458333,-17.655058,45.713591)"
           style="fill:#3f3d56"
           points="308.565,382.762 324.36,426.762 427.027,414.352 408.976,372.608 "
           id="polygon128" />
        <path
           inkscape:connector-curvature="0"
           style="fill:#a0616a;stroke-width:0.26458332"
           d="m 98.015702,163.40378 -0.89551,-2.38804 c 0,0 -6.86562,-11.94021 -10.44768,-9.55217 -3.58207,2.38805 7.46263,14.02975 7.46263,14.02975 h 3.58206 z"
           id="path130" />
        <path
           inkscape:connector-curvature="0"
           style="fill:#a0616a;stroke-width:0.26458332"
           d="m 75.32931,165.19481 -0.895514,-3.58206 c 0,0 -2.388042,-11.04469 1.79103,-10.44768 4.179073,0.59701 5.373095,11.04469 5.373095,11.04469 l -0.298505,2.38804 z"
           id="path132" />
        <path
           inkscape:connector-curvature="0"
           style="fill:#575a89;stroke-width:0.26458332"
           d="m 82.493432,163.70229 c 0,0 -7.761131,-1.19402 -8.059636,0.59701 -0.298506,1.79103 -1.791031,28.65649 5.671608,29.55201 7.462638,0.89552 44.477276,4.77608 40.596706,-4.47758 -3.88057,-9.25366 -9.85067,-8.05964 -9.85067,-8.05964 l -25.372948,2.68655 z"
           id="path134" />
        <polygon
           transform="matrix(0.26458333,0,0,0.26458333,-17.655058,45.713591)"
           style="fill:#575a89"
           points="467.078,458.916 437.181,438.044 417.437,453.275 442.258,480.352 "
           id="polygon136" />
        <polygon
           transform="matrix(0.26458333,0,0,0.26458333,-17.655058,45.713591)"
           style="opacity:0.2"
           points="386.976,479.224 391.488,522.096 469.335,517.583 401.642,516.455 "
           id="polygon138" />
        <circle
           style="fill:#2f2e41;stroke-width:0.26458332"
           cx="145.99519"
           cy="170.75642"
           r="14.92526"
           id="circle140" />
        <polygon
           transform="matrix(0.26458333,0,0,0.26458333,-17.655058,45.713591)"
           style="fill:#ff3030"
           points="328.309,307.736 398.258,305.301 405.027,279.531 332.822,281.71 "
           id="polygon142" />
        <polygon
           transform="matrix(0.26458333,0,0,0.26458333,-17.655058,45.713591)"
           style="fill:#e6e6e6"
           points="310.258,322.403 416.309,319.018 417.437,314.505 311.386,318.239 "
           id="polygon144" />
        <polygon
           transform="matrix(0.26458333,0,0,0.26458333,-17.655058,45.713591)"
           style="fill:#e6e6e6"
           points="308.001,333.685 414.053,330.3 415.181,325.787 309.129,329.521 "
           id="polygon146" />
        <polygon
           transform="matrix(0.26458333,0,0,0.26458333,-17.655058,45.713591)"
           style="fill:#e6e6e6"
           points="306.873,342.71 412.924,339.326 414.053,334.813 308.001,338.546 "
           id="polygon148" />
      </g>
      <g
         transform="translate(0,-0.13878941)"
         id="g1447">
        <g
           id="g1272"
           transform="matrix(1.2292016,0,0,1.2292016,71.597963,153.23854)">
          <g
             transform="matrix(0.07406796,0,0,0.07406796,92.177711,47.74475)"
             id="g1178">
            <path
               inkscape:connector-curvature="0"
               style="fill:url(#a);stroke-width:0.35277778"
               d="M 15.199977,29.914293 C 14.760377,20.301102 13.233517,13.736126 11.001087,7.992463 8.7342166,1.966301 5.1788766,-3.492109 0.5844966,-8.003806 c -4.51032,-4.59438 -9.97011,-8.151096 -15.9962696,-10.419347 -5.74504,-2.231044 -12.30864,-3.756533 -21.92183,-4.193371 -9.63111,-0.440972 -12.70827,-0.545703 -37.234594,-0.545703 -24.526325,0 -27.603483,0.104731 -37.234593,0.542947 -9.61319,0.439594 -16.17679,1.966461 -21.92183,4.198883 -6.02617,2.266873 -11.48458,5.822211 -15.99627,10.416591 -4.59438,4.510319 -8.1511,9.968729 -10.41935,15.994891 -2.23104,5.745041 -3.75653,12.310017 -4.19337,21.921832 -0.44097,9.63249 -0.5457,12.708271 -0.5457,37.234593 0,24.527703 0.10473,27.604863 0.5457,37.23597 0.43822,9.61182 1.96508,16.17679 4.1975,21.92183 2.26688,6.02478 5.82222,11.48457 10.4166,15.99489 4.51031,4.59438 9.9701,8.14972 15.99626,10.41659 5.74367,2.23381 12.30864,3.75929 21.92184,4.19889 9.63248,0.43959 12.708267,0.54294 37.234591,0.54294 24.526326,0 27.603486,-0.10335 37.234596,-0.54294 9.61319,-0.4396 16.17679,-1.96508 21.92183,-4.19889 12.1308696,-4.69084 21.7206396,-14.28061 26.41148,-26.41148 2.2338,-5.74504 3.75929,-12.31001 4.19889,-21.92183 0.43821,-9.632487 0.54294,-12.708267 0.54294,-37.234591 0,-24.527701 -0.10473,-27.603482 -0.54294,-37.234596 z M -1.0567434,103.64347 c -0.40101,8.80567 -1.87276,13.58746 -3.10886,16.76935 -3.03857,7.87687 -9.2631696,14.10147 -17.1400396,17.14004 -3.18189,1.2361 -7.96368,2.70784 -16.76934,3.10885 -9.52087,0.43547 -12.37754,0.52642 -36.493214,0.52642 -24.117046,0 -26.972343,-0.0909 -36.494593,-0.52642 -8.80428,-0.40101 -13.58607,-1.87275 -16.76934,-3.10885 -3.9219,-1.44832 -7.47035,-3.75653 -10.38352,-6.75652 -2.99999,-2.91317 -5.3082,-6.46024 -6.75652,-10.38352 -1.2361,-3.18189 -2.70785,-7.96368 -3.10886,-16.76935 -0.43408,-9.522237 -0.52641,-12.378917 -0.52641,-36.493203 0,-24.11567 0.0923,-26.970966 0.52641,-36.494588 0.40239,-8.805664 1.87276,-13.587457 3.10886,-16.769347 1.44832,-3.923276 3.75791,-7.471725 6.75652,-10.384896 2.91317,-2.99998997 6.46162,-5.308204 10.3849,-6.755144 3.18189,-1.237478 7.96368,-2.707846 16.76934,-3.110232 9.52225,-0.434082 12.378921,-0.526411 36.493213,-0.526411 h -0.0013 c 24.114284,0 26.970964,0.09233 36.494584,0.527789 8.80566,0.401008 13.58608,1.872754 16.76935,3.108854 3.9219,1.448318 7.47034,3.75653203 10.38352,6.755144 2.9999896,2.913171 5.3081996,6.46162 6.7551396,10.384896 1.23748,3.18189 2.70922,7.963683 3.11023,16.769347 0.43409,9.522243 0.52641,12.378918 0.52641,36.49321 0,24.115664 -0.0909,26.970964 -0.52641,36.494581 z m 0,0"
               id="path21" />
            <path
               inkscape:connector-curvature="0"
               style="fill:url(#b);stroke-width:0.35277778"
               d="m -74.569576,20.772389 c -25.612224,0 -46.375124,20.764283 -46.375124,46.3765 0,25.612224 20.7629,46.375121 46.375124,46.375121 25.613603,0 46.376503,-20.762897 46.376503,-46.375121 0,-25.612217 -20.7629,-46.3765 -46.376503,-46.3765 z m 0,76.479744 c -16.624654,-0.001 -30.103244,-13.47859 -30.101864,-30.104623 0,-16.624654 13.47721,-30.103246 30.103243,-30.103246 16.626034,0.0013 30.103244,13.478592 30.103244,30.103246 0,16.626033 -13.47859,30.104623 -30.104623,30.104623 z m 0,0"
               id="path23" />
            <path
               inkscape:connector-curvature="0"
               style="fill:url(#c);stroke-width:0.35277778"
               d="m -15.523393,18.940977 c 0,5.98482 -4.85207,10.836894 -10.83689,10.836894 -5.9862,0 -10.83827,-4.852074 -10.83827,-10.836894 0,-5.986198 4.85207,-10.838272 10.83827,-10.838272 5.98482,0 10.83689,4.852074 10.83689,10.838272 z m 0,0"
               id="path25" />
          </g>
          <path
             id="path12"
             d="m 86.421155,63.658321 a 11.1125,11.1125 0 1 1 11.11249,-11.1125 11.12511,11.12511 0 0 1 -11.11249,11.1125 z m 0,-21.695833 A 10.583333,10.583333 0 1 0 97.004488,52.545821 10.595295,10.595295 0 0 0 86.421155,41.962488 Z"
             style="fill:#3f3d56;stroke-width:0.26458332"
             inkscape:connector-curvature="0" />
        </g>
        <g
           id="g1276"
           transform="matrix(1.2292016,0,0,1.2292016,-19.086819,104.89053)">
          <path
             id="path10"
             d="m 38.266995,80.591654 a 11.1125,11.1125 0 1 1 11.1125,-11.1125 11.12511,11.12511 0 0 1 -11.1125,11.1125 z m 0,-21.695833 a 10.583333,10.583333 0 1 0 10.58333,10.583333 10.595314,10.595314 0 0 0 -10.58333,-10.583333 z"
             style="fill:#3f3d56;stroke-width:0.26458332"
             inkscape:connector-curvature="0" />
          <path
             id="path18"
             d="m 44.616995,66.435848 1.32291,-0.264583 c 0,0 -1.11125,1.243541 -1.32291,1.322916 v 0 a 5.3245941,5.3245941 0 0 0 0,0.79375 c -2.54,10.900834 -11.90625,6.085417 -11.90625,6.085417 3.41312,0.07937 3.70416,-1.322917 3.70416,-1.322917 -1.98437,-0.291041 -2.38125,-1.5875 -2.38125,-1.5875 a 0.8175625,0.8175625 0 0 0 1.05834,-0.264583 c -2.14313,-0.555625 -1.85209,-2.645833 -1.85209,-2.645833 a 2.7517222,2.7517222 0 0 0 1.29646,0.502708 c -0.23812,-0.291042 -2.24896,-2.69875 -1.03187,-3.942292 0,0 1.48166,2.645834 5.37104,2.883959 l 0.26458,-0.05292 a 2.077085,2.077085 0 0 1 -0.0529,-0.582083 2.778125,2.778125 0 0 1 2.77813,-2.778125 c 1.85208,0 2.24896,1.058333 2.24896,1.058333 l 1.32291,-0.79375 c -0.0265,0 -0.15875,1.322917 -0.82021,1.5875 z"
             style="fill:#1da1f2;fill-opacity:1;stroke-width:0.26458332"
             inkscape:connector-curvature="0" />
        </g>
        <g
           id="g1244"
           transform="matrix(1.2292016,0,0,1.2292016,-110.06161,70.044861)">
          <path
             id="path16"
             d="m 184.84615,107.84374 a 11.1125,11.1125 0 1 1 11.1125,-11.112502 11.12511,11.12511 0 0 1 -11.1125,11.112502 z m 0,-21.695836 a 10.583333,10.583333 0 1 0 10.5833,10.583334 10.595295,10.595295 0 0 0 -10.5833,-10.583334 z"
             style="fill:#3f3d56;stroke-width:0.26458332"
             inkscape:connector-curvature="0" />
          <path
             id="path74"
             d="m 185.23525,89.534235 a 7.2876675,7.2876675 0 0 0 -2.9246,13.962495 6.4535685,6.4535685 0 0 1 0.1269,-1.67212 c 0.1399,-0.59207 0.9369,-3.972087 0.9369,-3.972087 a 2.78198,2.78198 0 0 1 -0.2342,-1.151612 c 0,-1.080029 0.6246,-1.886823 1.4053,-1.886823 0.6637,0 0.9825,0.497732 0.9825,1.093057 0,0.666893 -0.4262,1.662356 -0.6441,2.586249 a 1.1266091,1.1266091 0 0 0 1.1516,1.402104 c 1.3793,0 2.3097,-1.772973 2.3097,-3.874495 0,-1.597289 -1.0768,-2.791195 -3.0319,-2.791195 -2.2089,0 -3.5882,1.649344 -3.5882,3.490621 a 2.1005271,2.1005271 0 0 0 0.4814,1.428131 0.35617415,0.35617415 0 0 1 0.1041,0.406644 c -0.036,0.133379 -0.1138,0.45544 -0.1496,0.585565 a 0.25036462,0.25036462 0 0 1 -0.3644,0.182176 c -1.0182,-0.416401 -1.4932,-1.528977 -1.4932,-2.784692 0,-2.068999 1.747,-4.551148 5.2083,-4.551148 2.7815,0 4.613,2.013696 4.613,4.173784 0,2.859516 -1.5908,4.993581 -3.9331,4.993581 -0.7872,0 -1.5257,-0.42617 -1.7794,-0.90763 0,0 -0.4229,1.67862 -0.514,2.00393 a 6.0568814,6.0568814 0 0 1 -0.732,1.56151 7.2882813,7.2882813 0 1 0 2.069,-14.278045 z"
             style="fill:#ff3030;fill-opacity:1;stroke-width:0.26458332"
             inkscape:connector-curvature="0" />
        </g>
        <g
           id="g1280"
           transform="matrix(1.2292016,0,0,1.2292016,174.4443,35.874595)">
          <path
             id="path8"
             d="m -6.7121729,116.3104 a 11.1125,11.1125 0 1 1 11.1125,-11.1125 11.12511,11.12511 0 0 1 -11.1125,11.1125 z m 0,-21.695829 a 10.583333,10.583333 0 1 0 10.58333,10.583329 10.595314,10.595314 0 0 0 -10.58333,-10.583329 z"
             style="fill:#3f3d56;stroke-width:0.26458332"
             inkscape:connector-curvature="0" />
          <path
             id="path78"
             d="m 0.55227713,105.24152 a 7.2644529,7.2644529 0 1 0 -8.39952003,7.17656 v -5.07603 h -1.84498 v -2.10053 h 1.84498 v -1.60077 c 0,-1.82033 1.08481,-2.82665 2.74395,-2.82665 a 11.163438,11.163438 0 0 1 1.6264001,0.14204 v 1.78791 h -0.91649 c -0.9019001,0 -1.1840501,0.55975 -1.1840501,1.13506 v 1.36273 h 2.0145901 l -0.32171,2.10053 h -1.6928801 v 5.07636 a 7.2664029,7.2664029 0 0 0 6.12971003,-7.17722 z"
             style="fill:#4267b2;fill-opacity:1;fill-rule:evenodd;stroke-width:0.26458332"
             inkscape:connector-curvature="0" />
        </g>
        <g
           id="g1265"
           transform="matrix(1.2292016,0,0,1.2292016,-88.028543,77.900192)">
          <path
             id="path14"
             d="m 137.7503,81.120821 a 11.1125,11.1125 0 1 1 11.11255,-11.1125 11.12511,11.12511 0 0 1 -11.11255,11.1125 z m 0,-21.695833 A 10.583333,10.583333 0 1 0 148.33365,70.008321 10.595295,10.595295 0 0 0 137.7503,59.424988 Z"
             style="fill:#3f3d56;stroke-width:0.26458332"
             inkscape:connector-curvature="0" />
          <g
             id="g34"
             transform="matrix(0.03921659,0,0,0.03921659,141.87255,49.413725)">
            <g
               transform="matrix(0.72291409,0,0,0.72291409,-285.07939,335.16626)"
               id="g1103">
              <g
                 id="g10">
                <g
                   id="g8">
                  <g
                     id="g6">
                    <g
                       id="g4">
                      <path
                         style="fill:#4175df"
                         inkscape:connector-curvature="0"
                         d="M 437,480.997 H 75 c -24.813,0 -45,-20.187 -45,-45 V 217.97 c 0,-4.856 2.351,-9.412 6.309,-12.226 l 211,-150 c 5.204,-3.699 12.179,-3.699 17.383,0 l 211,150 c 3.958,2.814 6.309,7.37 6.309,12.226 v 218.027 c -10e-4,24.813 -20.188,45 -45.001,45 z"
                         id="path2-1" />
                    </g>
                  </g>
                </g>
              </g>
              <path
                 style="fill:#4254b6"
                 inkscape:connector-curvature="0"
                 d="m 437,480.997 c 24.813,0 45,-20.187 45,-45 V 217.97 c 0,-4.856 -2.351,-9.412 -6.309,-12.226 l -211,-150 C 262.089,53.894 259.044,52.97 256,52.97 v 428.027 z"
                 id="path12-9" />
              <g
                 id="g30">
                <path
                   style="fill:#4086f4"
                   inkscape:connector-curvature="0"
                   d="m 127.469,177.33 c 0,35.165 -28.532,63.667 -63.734,63.667 C 28.533,240.997 0,212.495 0,177.33 Z"
                   id="path14-0" />
                <path
                   style="fill:#324492"
                   inkscape:connector-curvature="0"
                   d="m 256,177.33 c 0,35.165 -29.594,63.667 -64.797,63.667 -35.203,0 -63.734,-28.501 -63.734,-63.667 z"
                   id="path16-2" />
                <path
                   style="fill:#4254b6"
                   inkscape:connector-curvature="0"
                   d="M 512,177.33 H 384.531 L 351.602,31.003 h 76.97 c 12.067,0 23.104,6.812 28.5,17.593 z"
                   id="path18-3" />
                <path
                   style="fill:#4086f4"
                   inkscape:connector-curvature="0"
                   d="M 384.531,177.33 H 256 V 31.003 h 95.602 z"
                   id="path20" />
                <path
                   style="fill:#4254b6"
                   inkscape:connector-curvature="0"
                   d="M 256,31.003 V 177.33 H 127.469 L 159.336,31.003 Z"
                   id="path22-7" />
                <path
                   style="fill:#80aef8"
                   inkscape:connector-curvature="0"
                   d="M 159.336,31.003 127.469,177.33 H 0 L 54.928,48.597 c 5.396,-10.781 16.433,-17.593 28.5,-17.593 h 75.908 z"
                   id="path24" />
                <path
                   style="fill:#4175df"
                   inkscape:connector-curvature="0"
                   d="m 384.531,177.33 c 0,35.165 -28.532,63.667 -63.734,63.667 C 285.595,240.997 256,212.495 256,177.33 Z"
                   id="path26-3" />
                <path
                   style="fill:#324492"
                   inkscape:connector-curvature="0"
                   d="m 512,177.33 c 0,35.165 -28.532,63.667 -63.734,63.667 -35.202,0 -63.734,-28.501 -63.734,-63.667 z"
                   id="path28" />
              </g>
              <path
                 style="fill:#ffffff;fill-opacity:1"
                 inkscape:connector-curvature="0"
                 d="m 406,330.997 h -45 c -8.284,0 -15,6.716 -15,15 0,8.284 6.716,15 15,15 h 27.42 c -6.192,17.458 -22.865,30 -42.42,30 -24.813,0 -45,-20.187 -45,-45 0,-24.813 20.187,-45 45,-45 12.02,0 23.32,4.681 31.82,13.181 5.857,5.857 15.355,5.857 21.213,0 5.858,-5.858 5.857,-15.355 0,-21.213 -14.166,-14.166 -33,-21.967 -53.033,-21.967 -41.355,0 -75,33.645 -75,75 0,41.355 33.645,75 75,75 41.355,0 75,-33.645 75,-75 0,-8.286 -6.716,-15.001 -15,-15.001 z"
                 id="path32-0" />
            </g>
          </g>
        </g>
      </g>
    </g>
  </g>
</svg>
