<?xml version="1.0" encoding="UTF-8" standalone="no"?>
<svg
   xmlns:dc="http://purl.org/dc/elements/1.1/"
   xmlns:cc="http://creativecommons.org/ns#"
   xmlns:rdf="http://www.w3.org/1999/02/22-rdf-syntax-ns#"
   xmlns:svg="http://www.w3.org/2000/svg"
   xmlns="http://www.w3.org/2000/svg"
   xmlns:sodipodi="http://sodipodi.sourceforge.net/DTD/sodipodi-0.dtd"
   xmlns:inkscape="http://www.inkscape.org/namespaces/inkscape"
   id="aa63e406-b348-4b5f-9922-9dab374b4ab8"
   data-name="Layer 1"
   width="800"
   height="600"
   viewBox="0 0 800 600"
   version="1.1"
   sodipodi:docname="travel_booking.svg"
   inkscape:version="0.92.4 (5da689c313, 2019-01-14)">
  <metadata
     id="metadata105">
    <rdf:RDF>
      <cc:Work
         rdf:about="">
        <dc:format>image/svg+xml</dc:format>
        <dc:type
           rdf:resource="http://purl.org/dc/dcmitype/StillImage" />
        <dc:title>travel booking</dc:title>
      </cc:Work>
    </rdf:RDF>
  </metadata>
  <defs
     id="defs103" />
  <sodipodi:namedview
     pagecolor="#ffffff"
     bordercolor="#666666"
     borderopacity="1"
     objecttolerance="10"
     gridtolerance="10"
     guidetolerance="10"
     inkscape:pageopacity="0"
     inkscape:pageshadow="2"
     inkscape:window-width="1920"
     inkscape:window-height="986"
     id="namedview101"
     showgrid="false"
     inkscape:zoom="0.33305013"
     inkscape:cx="588.5"
     inkscape:cy="299.25"
     inkscape:window-x="-11"
     inkscape:window-y="-11"
     inkscape:window-maximized="1"
     inkscape:current-layer="aa63e406-b348-4b5f-9922-9dab374b4ab8" />
  <title
     id="title2">travel booking</title>
  <g
     id="g960"
     transform="matrix(0.67969414,0,0,0.67969414,-1.39e-6,95.594212)">
    <path
       style="fill:#f2f2f2"
       inkscape:connector-curvature="0"
       id="path4"
       d="m 263.13,351.75 -6.29,-3.91 c -0.6,-0.37 -1.19,-0.77 -1.79,-1.15 a 59.86,59.86 0 0 0 6.05,-116.62 l 0.31,24.66 -13.55,-26.83 h -0.17 a 59.87,59.87 0 0 0 -62.58,57 c -0.06,1.15 0,2.27 0,3.4 -4.71,-5.38 -9,-11.15 -11.83,-17.47 -5.73,-12.79 -5.84,-27.28 -5.39,-44.9 0.9,-34.9 2.41,-70.08 4.37,-105.14 a 59.85,59.85 0 0 0 53.16,-56.64 c 0.08,-1.83 0,-3.63 0,-5.43 0,-0.45 0,-0.89 -0.07,-1.34 -0.12,-1.74 -0.28,-3.46 -0.55,-5.16 0,-0.28 -0.1,-0.55 -0.15,-0.82 -0.24,-1.44 -0.54,-2.86 -0.88,-4.26 -0.13,-0.53 -0.26,-1 -0.4,-1.57 -0.42,-1.53 -0.88,-3 -1.42,-4.52 -0.18,-0.49 -0.39,-1 -0.58,-1.46 -0.42,-1.09 -0.88,-2.17 -1.37,-3.23 -0.26,-0.56 -0.51,-1.12 -0.78,-1.67 -0.08,-0.14 -0.13,-0.29 -0.21,-0.43 v 0 A 59.84,59.84 0 0 0 148.73,3.9 l 0.4,32.1 -13.4,-26.52 a 59.57,59.57 0 0 0 -28.55,64.51 h -0.06 c 0.09,0.43 0.22,0.84 0.32,1.26 0.19,0.79 0.39,1.57 0.61,2.35 0.28,1 0.6,2 0.93,3 0.25,0.74 0.49,1.47 0.77,2.2 0.41,1.06 0.87,2.09 1.33,3.12 0.27,0.6 0.51,1.22 0.8,1.81 q 1.14,2.33 2.48,4.53 c 0.31,0.52 0.66,1 1,1.51 0.64,1 1.28,2 2,2.93 0.43,0.59 0.89,1.16 1.34,1.73 0.66,0.83 1.33,1.65 2,2.44 0.49,0.57 1,1.12 1.51,1.66 0.74,0.78 1.49,1.53 2.27,2.26 0.52,0.49 1,1 1.57,1.46 0.88,0.79 1.8,1.53 2.73,2.26 0.47,0.37 0.93,0.75 1.41,1.11 1.42,1 2.88,2 4.39,3 0.28,0.17 0.59,0.31 0.87,0.48 1.27,0.74 2.55,1.45 3.87,2.09 0.57,0.28 1.15,0.53 1.73,0.79 1.08,0.48 2.17,0.95 3.29,1.38 l 2,0.7 c 1.1,0.37 2.22,0.72 3.35,1 0.66,0.18 1.33,0.37 2,0.53 1.22,0.29 2.47,0.53 3.73,0.75 l 0.24,0.05 q -1.23,22.19 -2.2,44.39 a 59.83,59.83 0 0 0 -83.07,-26 l 10.58,29 -21.77,-20.9 a 59.66,59.66 0 0 0 -19.34,41.34 58.5,58.5 0 0 0 1.44,16.53 59.84,59.84 0 0 0 110.06,16.3 c 0,1.5 -0.1,3 -0.14,4.51 -0.4,15.54 -0.9,34.88 6.85,52.15 5.25,11.7 13.69,21.21 22,29.73 5.43,5.54 11.06,10.91 16.83,16.1 a 60.09,60.09 0 0 0 21.62,18 c 9.48,7.3 19.3,14.17 29.45,20.51 l 6.34,3.94 c 5.7,3.53 11.54,7.16 17.26,10.93 -1,-0.1 -2,-0.21 -3,-0.26 a 59.89,59.89 0 0 0 -58.94,39 l 37.4,30.43 -41.14,-9.54 a 59.89,59.89 0 0 0 85.82,53.92 l -2.78,3.45 q -2.76,3.43 -5.45,6.82 c -24.34,30.83 -31.11,60.09 -19.06,82.4 l 14.66,-7.91 c -11.73,-21.72 5.91,-49.52 17.47,-64.16 q 2.64,-3.33 5.36,-6.7 c 15.55,-19.32 33.17,-41.22 32.74,-68.08 -0.63,-40.54 -39.94,-64.94 -71.52,-84.54 z" />
    <ellipse
       style="fill:#3f3d56"
       id="ellipse6"
       ry="21"
       rx="588.5"
       cy="579"
       cx="588.5" />
    <path
       style="fill:none;stroke:#3f3d56;stroke-width:4;stroke-miterlimit:10"
       inkscape:connector-curvature="0"
       id="path8"
       stroke-miterlimit="10"
       d="m 108.4,572.17 c -3,-5.51 0.4,-12.27 4.29,-17.18 3.89,-4.91 8.61,-10 8.51,-16.29 -0.15,-9 -9.7,-14.31 -17.33,-19.09 A 84,84 0 0 1 88.31,507.1 22.8,22.8 0 0 1 83.5,500.75 c -1.58,-3.52 -1.54,-7.52 -1.44,-11.37 q 0.51,-19.26 1.91,-38.49" />
    <path
       style="fill:#57b894"
       inkscape:connector-curvature="0"
       id="path10"
       d="m 69.5,450.14 a 14,14 0 0 1 7,-11.5 l 3.14,6.22 -0.1,-7.53 a 14.22,14.22 0 0 1 4.63,-0.56 14,14 0 1 1 -14.67,13.37 z" />
    <path
       style="fill:#57b894"
       inkscape:connector-curvature="0"
       id="path12"
       d="m 94.5,545.13 a 14,14 0 1 0 -0.68,-11.3 l 8.77,7.13 -9.63,-2.21 a 14,14 0 0 0 1.54,6.38 z" />
    <path
       style="fill:#57b894"
       inkscape:connector-curvature="0"
       id="path14"
       d="m 101.5,517.88 a 14,14 0 0 0 4.45,-27.53 l 0.08,5.78 -3.18,-6.29 v 0 a 14,14 0 0 0 -14.67,13.36 13.84,13.84 0 0 0 0.6,4.79 14,14 0 0 0 12.72,9.89 z" />
    <path
       style="fill:#57b894"
       inkscape:connector-curvature="0"
       id="path16"
       d="m 67.38,495.21 a 14,14 0 1 0 -6.21,-26.27 l 2.48,6.8 -5.1,-4.9 a 14,14 0 0 0 -4.53,9.69 13.79,13.79 0 0 0 0.35,3.87 14,14 0 0 0 13.01,10.81 z" />
    <path
       style="opacity:0.1"
       inkscape:connector-curvature="0"
       id="path18"
       d="m 71.38,453.88 c 3.24,0.35 6.39,1.36 9.64,1.56 3.25,0.2 6.82,-0.57 8.88,-3.1 1.1,-1.36 1.66,-3.08 2.59,-4.57 a 10,10 0 0 1 3.54,-3.33 14,14 0 1 1 -26.24,9.31 q 0.79,0 1.59,0.13 z" />
    <path
       style="opacity:0.1"
       inkscape:connector-curvature="0"
       id="path20"
       d="m 67.38,495.21 a 14,14 0 0 0 13.35,-20 10.37,10.37 0 0 0 -2.82,2.82 c -1,1.51 -1.61,3.26 -2.78,4.64 -2.19,2.57 -5.92,3.41 -9.31,3.26 -3.39,-0.15 -6.66,-1.12 -10,-1.43 -0.47,0 -0.94,-0.07 -1.42,-0.08 a 14,14 0 0 0 12.98,10.79 z" />
    <path
       style="opacity:0.1"
       inkscape:connector-curvature="0"
       id="path22"
       d="m 101.5,517.88 a 14,14 0 0 0 13.46,-19.76 11.48,11.48 0 0 0 -3,2.85 c -1.09,1.54 -1.77,3.32 -3,4.74 -2.37,2.63 -6.35,3.56 -9.93,3.48 -3.58,-0.08 -6.83,-0.93 -10.28,-1.2 a 14,14 0 0 0 12.75,9.89 z" />
    <path
       style="opacity:0.1"
       inkscape:connector-curvature="0"
       id="path24"
       d="m 94.5,545.13 a 14.017405,14.017405 0 0 0 25.59,-11.45 13.84,13.84 0 0 0 -3.08,2.75 c -1.34,1.62 -2.22,3.47 -3.76,5 -2.87,2.82 -7.5,4 -11.63,4.09 a 60,60 0 0 1 -7.12,-0.39 z" />
    <path
       style="fill:#656380"
       inkscape:connector-curvature="0"
       id="path26"
       d="m 129.57,565.82 c 0,0 -11.08,-0.34 -14.42,-2.72 -3.34,-2.38 -17,-5.21 -17.86,-1.4 -0.86,3.81 -16.65,19 -4.15,19.06 12.5,0.06 29.06,-1.94 32.4,-4 3.34,-2.06 4.03,-10.94 4.03,-10.94 z" />
    <path
       style="opacity:0.2"
       inkscape:connector-curvature="0"
       id="path28"
       d="m 92.92,579.44 c 12.51,0.1 29.06,-2 32.39,-4 2.54,-1.55 3.55,-7.09 3.89,-9.65 h 0.37 c 0,0 -0.7,8.94 -4,11 -3.3,2.06 -19.89,4.07 -32.4,4 -3.61,0 -4.85,-1.31 -4.78,-3.21 0.47,1.17 1.84,1.83 4.53,1.86 z" />
    <rect
       style="fill:#f2f2f2"
       id="rect30"
       rx="20.42"
       height="456"
       width="834"
       y="112.75"
       x="171.5" />
    <path
       style="fill:#ff3030"
       inkscape:connector-curvature="0"
       id="path32"
       d="m 172,135.25 h 268 v 434 H 192.42 A 20.42,20.42 0 0 1 172,548.83 Z" />
    <path
       style="fill:#3f3d56"
       inkscape:connector-curvature="0"
       id="path34"
       d="m 1005.5,133.17 v 11.58 h -834 v -11.58 a 20.42,20.42 0 0 1 20.42,-20.42 h 793.16 a 20.42,20.42 0 0 1 20.42,20.42 z" />
    <circle
       style="fill:#ff3030"
       id="circle36"
       r="6"
       cy="129.25"
       cx="193" />
    <circle
       style="fill:#ff3030"
       id="circle38"
       r="6"
       cy="129.25"
       cx="208" />
    <circle
       style="fill:#ff3030"
       id="circle40"
       r="6"
       cy="129.25"
       cx="223" />
    <path
       style="fill:none;stroke:#f2f2f2;stroke-width:2;stroke-miterlimit:10"
       inkscape:connector-curvature="0"
       id="path42"
       stroke-miterlimit="10"
       d="m 376,340.75 a 66.5,66.5 0 1 1 -66.5,-66.5 66.47,66.47 0 0 1 66.5,66.5 z" />
    <path
       style="fill:none;stroke:#f2f2f2;stroke-width:2;stroke-linecap:round;stroke-linejoin:round"
       inkscape:connector-curvature="0"
       id="path44"
       d="m 313.88,317.98 8.3,13 35.53,55.59 A 66.5,66.5 0 0 1 254.39,378 l 43.54,-84.94 0.91,1.43" />
    <path
       style="fill:none;stroke:#f2f2f2;stroke-width:2;stroke-miterlimit:10"
       inkscape:connector-curvature="0"
       id="path46"
       stroke-miterlimit="10"
       d="m 373.81,357.75 a 66.46,66.46 0 0 1 -16.1,28.82 l -35.53,-55.59 15.69,-24.78 a 0.66,0.66 0 0 1 1.1,0 c 3.29,4.87 20.53,30.55 34.84,51.55 z" />
    <path
       style="fill:none;stroke:#f2f2f2;stroke-width:2;stroke-miterlimit:10"
       inkscape:connector-curvature="0"
       id="path48"
       stroke-miterlimit="10"
       d="m 326,303.25 a 15,15 0 0 1 -12.12,14.73 l -15,-23.51 a 15,15 0 0 1 27.16,8.78 z" />
    <path
       style="fill:none;stroke:#f2f2f2;stroke-width:2;stroke-miterlimit:10"
       inkscape:connector-curvature="0"
       id="path50"
       stroke-miterlimit="10"
       d="M 336,332.25" />
    <path
       style="fill:none;stroke:#f2f2f2;stroke-width:2;stroke-miterlimit:10"
       inkscape:connector-curvature="0"
       id="path52"
       stroke-miterlimit="10"
       d="M 322,331.25" />
    <path
       style="fill:#3f3d56"
       inkscape:connector-curvature="0"
       id="path54"
       d="m 552.01,263.88 c -0.35,0 -1.51,0 -1.83,0 l -6.61,0.17 a 0.19,0.19 0 0 1 -0.17,-0.09 l -9.9,-14.79 a 1.61,1.61 0 0 0 -1.37,-0.75 h -2.41 c -0.57,0 -0.77,0.57 -0.56,1.1 l 5.09,14.52 a 0.2,0.2 0 0 1 -0.18,0.28 l -12.45,0.18 a 0.81,0.81 0 0 1 -0.67,-0.31 l -3.77,-4.58 a 1.59,1.59 0 0 0 -1.28,-0.62 h -1.71 a 0.4,0.4 0 0 0 -0.38,0.54 l 2,7 a 1.68,1.68 0 0 1 0,1.21 l -2,7 a 0.39,0.39 0 0 0 0.38,0.53 h 1.7 a 1.62,1.62 0 0 0 1.28,-0.62 l 3.84,-4.64 a 0.82,0.82 0 0 1 0.67,-0.32 l 12.38,0.27 a 0.21,0.21 0 0 1 0.18,0.28 l -5.09,14.51 c -0.21,0.53 0,1.1 0.56,1.1 h 2.41 a 1.61,1.61 0 0 0 1.37,-0.76 l 9.91,-14.81 a 0.2,0.2 0 0 1 0.17,-0.09 l 6.61,0.17 c 0.33,0 1.48,0 1.83,0 4.5,0 7.35,-1.45 7.35,-3.25 0,-1.8 -2.86,-3.23 -7.35,-3.23 z" />
    <path
       style="fill:#3f3d56"
       inkscape:connector-curvature="0"
       id="path56"
       d="m 536.82,383.61 a 0.41,0.41 0 0 0 -0.51,0 l -15.87,12.7 a 0.42,0.42 0 0 0 -0.15,0.31 v 23.4 a 0.21,0.21 0 0 0 0.2,0.21 h 11 a 0.21,0.21 0 0 0 0.2,-0.21 v -14.27 a 0.21,0.21 0 0 1 0.21,-0.2 h 9.36 a 0.2,0.2 0 0 1 0.2,0.2 v 14.24 a 0.21,0.21 0 0 0 0.2,0.21 h 11 a 0.21,0.21 0 0 0 0.2,-0.21 v -23.4 a 0.4,0.4 0 0 0 -0.15,-0.31 z" />
    <path
       style="fill:#3f3d56"
       inkscape:connector-curvature="0"
       id="path58"
       d="m 557.19,393.8 -19.23,-15.41 a 2.23,2.23 0 0 0 -1.39,-0.48 2.26,2.26 0 0 0 -1.4,0.48 l -8.37,6.81 v -4.29 a 0.2,0.2 0 0 0 -0.2,-0.21 h -6.1 a 0.2,0.2 0 0 0 -0.2,0.21 v 9.38 l -4.34,3.57 a 1.41,1.41 0 0 0 -0.54,1 1.45,1.45 0 0 0 0.41,1.09 1.41,1.41 0 0 0 1,0.42 1.47,1.47 0 0 0 0.9,-0.31 L 536.43,381 a 0.22,0.22 0 0 1 0.14,0 0.24,0.24 0 0 1 0.13,0 l 18.71,15 a 1.44,1.44 0 0 0 2.33,-1.19 1.45,1.45 0 0 0 -0.55,-1 z" />
    <rect
       style="opacity:0.3;fill:#ff3030"
       id="rect60"
       rx="1.24"
       height="11"
       width="347"
       y="261.64001"
       x="604" />
    <rect
       style="opacity:0.3;fill:#ff3030"
       id="rect62"
       rx="1.24"
       height="11"
       width="347"
       y="393.57001"
       x="604" />
    <rect
       style="fill:#ff3030"
       id="rect64"
       rx="1.24"
       height="25"
       width="73"
       y="281.25"
       x="878" />
    <rect
       style="fill:#ff3030"
       id="rect66"
       rx="1.24"
       height="25"
       width="73"
       y="413.25"
       x="878" />
    <path
       style="fill:#ffc1c7"
       inkscape:connector-curvature="0"
       id="path68"
       d="m 966.68,457.68 -1.73,2 c 0,0 -21.05,2 -20.2,5.39 0.85,3.39 25.35,-4.55 25.35,-4.55 z" />
    <path
       style="fill:#ff6584"
       inkscape:connector-curvature="0"
       id="path70"
       d="m 1004.84,455.97 c 0,0 -22.5,8 -34.74,4.56 l 5.69,11.39 c 0,0 29.05,-0.86 34.18,-6 5.13,-5.14 -5.13,-9.95 -5.13,-9.95 z" />
    <path
       style="opacity:0.1"
       inkscape:connector-curvature="0"
       id="path72"
       d="m 1004.84,455.97 c 0,0 -22.5,8 -34.74,4.56 l 5.69,11.39 c 0,0 29.05,-0.86 34.18,-6 5.13,-5.14 -5.13,-9.95 -5.13,-9.95 z" />
    <circle
       style="fill:#ffc1c7"
       id="circle74"
       r="15.09"
       cy="379.79001"
       cx="989.59998" />
    <path
       style="fill:#ffc1c7"
       inkscape:connector-curvature="0"
       id="path76"
       d="m 1002.5,393.96 a 11.85,11.85 0 0 0 2,2.71 24.62,24.62 0 0 0 7.28,5.44 246.74,246.74 0 0 1 -25.93,3.86 c 0.92,-3.24 -0.29,-6.7 -1.91,-9.64 -1.62,-2.94 -3.7,-5.69 -4.72,-8.9 l 10.2,0.28 c 1.85,0 3.71,0.1 5.56,0 1.39,-0.07 3.69,-0.9 5,-0.59 2.64,0.63 1.3,4.42 2.52,6.84 z" />
    <path
       style="fill:#575a89"
       inkscape:connector-curvature="0"
       id="path78"
       d="m 1036.74,464.8 8.54,10.25 c 0,0 14.22,33.32 -16.78,36.7 -31,3.38 -54.11,-2.57 -54.11,-2.57 0,0 -12.53,-6 -12.82,-1.42 -0.29,4.58 -1.42,17.37 -8.26,29.9 l -6,13.67 a 8.84,8.84 0 0 0 -2.27,7.41 c 0.85,4.27 -19.09,5.69 -18.8,0 0,0 2.85,-4.84 2.85,-7.69 0,-2.85 4.55,-9.68 4.55,-9.68 l 8.26,-41 c 0,0 -0.57,-21.08 18.8,-17.09 19.37,3.99 47,-0.86 47,-0.86 l 6.26,-21.92 z" />
    <path
       style="opacity:0.1"
       inkscape:connector-curvature="0"
       id="path80"
       d="m 1036.74,464.8 8.54,10.25 c 0,0 14.22,33.32 -16.78,36.7 -31,3.38 -54.11,-2.57 -54.11,-2.57 0,0 -12.53,-6 -12.82,-1.42 -0.29,4.58 -1.42,17.37 -8.26,29.9 l -6,13.67 a 8.84,8.84 0 0 0 -2.27,7.41 c 0.85,4.27 -19.09,5.69 -18.8,0 0,0 2.85,-4.84 2.85,-7.69 0,-2.85 4.55,-9.68 4.55,-9.68 l 8.26,-41 c 0,0 -0.57,-21.08 18.8,-17.09 19.37,3.99 47,-0.86 47,-0.86 l 6.26,-21.92 z" />
    <path
       style="fill:#3c354c"
       inkscape:connector-curvature="0"
       id="path82"
       d="m 1075.32,499.54 v 8.55 a 1,1 0 0 1 -1,1 v 0 a 1,1 0 0 1 -1,-1 v -7.12 a 1,1 0 0 0 -1,-1 h -18.82 a 1,1 0 0 0 -1,1 v 7.12 a 1,1 0 0 1 -1,1 v 0 a 1,1 0 0 1 -1,-1 v -8.55 a 1,1 0 0 1 1,-1 h 22.78 a 1,1 0 0 1 1.04,1 z" />
    <path
       style="fill:#3f3d56"
       inkscape:connector-curvature="0"
       id="path84"
       d="m 987.66,572.54 a 5.79,5.79 0 0 0 5.14,6 l 134.88,3.33 a 0.41,0.41 0 0 0 0.32,-0.11 v 0 a 0.31,0.31 0 0 0 0.11,-0.2 l 1.79,-8.32 a 6.38,6.38 0 0 0 0.13,-1.44 l -2.88,-60.37 a 5.65,5.65 0 0 0 -0.84,-2.8 l -2,-3.36 a 1.12,1.12 0 0 0 -0.25,-0.28 1,1 0 0 0 -0.61,-0.2 l -127,1.89 a 5.8,5.8 0 0 0 -5.71,5.53 z" />
    <path
       style="opacity:0.1"
       inkscape:connector-curvature="0"
       id="path86"
       d="m 1124.03,505.02 4,76.78 v 0 l 0.11,-0.2 1.79,-8.32 a 6.38,6.38 0 0 0 0.13,-1.44 l -2.88,-60.37 a 5.65,5.65 0 0 0 -0.84,-2.8 l -2,-3.36 a 1.12,1.12 0 0 0 -0.31,-0.29 z" />
    <path
       style="fill:#575a89"
       inkscape:connector-curvature="0"
       id="path88"
       d="m 1004.7,464.05 c 0,0 26.06,-9.79 40.58,11 0,0 3.7,32.18 -11.11,33.6 -14.81,1.42 -34.17,1.14 -38.73,-3.7 -4.56,-4.84 -33.32,-18.51 -33.32,-18.51 0,0 -14.32,-7.3 -17.12,2.19 -2.8,9.49 -3.1,11.77 -3.1,11.77 0,0 -14.81,10.82 -20.79,12.81 0,0 -4,5.7 -6.26,5.7 -2.26,0 -16.23,3.13 -14.81,-7.41 l 23.07,-21.07 23.06,-22.5 c 0,0 6.55,-9.68 23.36,-4.56 a 346.13,346.13 0 0 0 33.89,8.26 z" />
    <path
       style="fill:#cbceda"
       inkscape:connector-curvature="0"
       id="path90"
       d="m 944.18,558.21 c 0,0 5.41,13.67 0.86,15.38 -4.55,1.71 -14.24,0.57 -14.24,0.57 0,0 -11.4,-1.43 -14.24,-1.14 -2.84,0.29 -14.53,-2 -12.82,-6.55 1.71,-4.55 10.54,-3.42 10.54,-3.42 l 8,-3.7 c 0,0 0.86,-2.85 2.85,-1.71 1.99,1.14 7.66,5.41 19.05,0.57 z" />
    <path
       style="fill:#cbceda"
       inkscape:connector-curvature="0"
       id="path92"
       d="m 914.56,517.75 c 0,0 6,13.38 -3.7,12.24 -9.7,-1.14 -17.09,-3.13 -19.93,-3.41 -2.84,-0.28 -10.49,-2.92 -9.3,-8.19 a 4.52,4.52 0 0 0 0.08,-1 c 0,-0.71 1,-2.09 8.65,-1.88 0,0 5.69,0 8,-4 -0.03,-0.01 8.51,10.81 16.2,6.24 z" />
    <path
       style="fill:#ff6584"
       inkscape:connector-curvature="0"
       id="path94"
       d="m 979.21,403.85 c 0,0 20.5,-12.81 37.59,0 17.09,12.81 28.48,71.2 28.48,71.2 l -39.59,-8.83 c 0,0 -1.7,-6.83 -4,-8 -2.3,-1.17 -2.57,-6 -2.57,-6 0,0 -12.24,-3.7 -11.39,-17.94 0.85,-14.24 -8.52,-30.43 -8.52,-30.43 z" />
    <path
       style="fill:#ff6584"
       inkscape:connector-curvature="0"
       id="path96"
       d="m 989.75,404.42 h -10.54 c 0,0 -6.27,7.12 -7.12,25.06 l -3.42,14.27 c 0,0 -7.12,17.09 -2.85,19.94 4.27,2.85 12.54,2.56 14.24,-3.13 1.7,-5.69 13.44,-38.76 13.44,-38.76 z" />
    <path
       style="fill:#3c354c"
       inkscape:connector-curvature="0"
       id="path98"
       d="m 986.73,360.15 a 15.27,15.27 0 0 1 15.77,2.6 c 5.47,4.88 6.57,12.85 8,20 1.43,7.15 4.17,15.21 11,18 a 28.35,28.35 0 0 1 -9.19,-0.27 l 10.25,9.19 -17.27,-5.63 c -5.42,-1.77 -11.11,-3.56 -16.72,-2.56 -9.3,1.65 -15.78,10.4 -24.71,13.47 l 1,-4.85 h -6 a 11.75,11.75 0 0 0 3.43,-4 3.27,3.27 0 0 0 -2.29,-1.2 c -2.5,-15.59 6.76,-31 18.81,-41.17 2.38,-2 5,-3.92 8.06,-4.42 3.06,-0.5 6.64,0.87 7.71,3.78" />
  </g>
</svg>
