<?xml version="1.0" encoding="UTF-8" standalone="no"?>
<svg
   xmlns:dc="http://purl.org/dc/elements/1.1/"
   xmlns:cc="http://creativecommons.org/ns#"
   xmlns:rdf="http://www.w3.org/1999/02/22-rdf-syntax-ns#"
   xmlns:svg="http://www.w3.org/2000/svg"
   xmlns="http://www.w3.org/2000/svg"
   xmlns:xlink="http://www.w3.org/1999/xlink"
   xmlns:sodipodi="http://sodipodi.sourceforge.net/DTD/sodipodi-0.dtd"
   xmlns:inkscape="http://www.inkscape.org/namespaces/inkscape"
   id="eb784e0d-05db-44e6-8395-40b319063039"
   data-name="Layer 1"
   width="800"
   height="600"
   viewBox="0 0 800 599.99997"
   version="1.1"
   sodipodi:docname="wall_post.svg"
   inkscape:version="0.92.4 (5da689c313, 2019-01-14)">
  <metadata
     id="metadata193">
    <rdf:RDF>
      <cc:Work
         rdf:about="">
        <dc:format>image/svg+xml</dc:format>
        <dc:type
           rdf:resource="http://purl.org/dc/dcmitype/StillImage" />
        <dc:title>wall post</dc:title>
      </cc:Work>
    </rdf:RDF>
  </metadata>
  <sodipodi:namedview
     pagecolor="#ffffff"
     bordercolor="#666666"
     borderopacity="1"
     objecttolerance="10"
     gridtolerance="10"
     guidetolerance="10"
     inkscape:pageopacity="0"
     inkscape:pageshadow="2"
     inkscape:window-width="1920"
     inkscape:window-height="986"
     id="namedview191"
     showgrid="false"
     inkscape:zoom="0.29568376"
     inkscape:cx="-862.25957"
     inkscape:cy="-161.57209"
     inkscape:window-x="-11"
     inkscape:window-y="-11"
     inkscape:window-maximized="1"
     inkscape:current-layer="eb784e0d-05db-44e6-8395-40b319063039" />
  <defs
     id="defs12">
    <linearGradient
       id="b86fccb4-da21-4a09-8d3b-ff994f3aa5aa"
       x1="639.03003"
       y1="672.42999"
       x2="639.03003"
       y2="50.93"
       gradientUnits="userSpaceOnUse">
      <stop
         offset="0"
         stop-color="gray"
         stop-opacity="0.25"
         id="stop2" />
      <stop
         offset="0.54"
         stop-color="gray"
         stop-opacity="0.12"
         id="stop4" />
      <stop
         offset="1"
         stop-color="gray"
         stop-opacity="0.1"
         id="stop6" />
    </linearGradient>
    <linearGradient
       id="d2adb5db-d5c7-49ab-bfdd-50ec6aa449ae"
       x1="319.12"
       y1="309.67999"
       x2="319.12"
       y2="212.14999"
       xlink:href="#b86fccb4-da21-4a09-8d3b-ff994f3aa5aa"
       gradientTransform="translate(-53,-449.08002)" />
    <linearGradient
       id="fd1a872a-c2fb-4cd4-906a-a62e176bbce4"
       x1="332.56"
       y1="304.73999"
       x2="332.56"
       y2="246.12"
       gradientTransform="matrix(-1,0,0,1,599,-449.08002)"
       xlink:href="#b86fccb4-da21-4a09-8d3b-ff994f3aa5aa" />
    <linearGradient
       id="636ac3f3-8a9d-4cd8-9529-d45e35aeb867"
       x1="803.65002"
       y1="796.84998"
       x2="803.65002"
       y2="184.5"
       xlink:href="#b86fccb4-da21-4a09-8d3b-ff994f3aa5aa"
       gradientTransform="translate(-53,-449.08002)" />
    <linearGradient
       inkscape:collect="always"
       xlink:href="#b86fccb4-da21-4a09-8d3b-ff994f3aa5aa"
       id="linearGradient1000"
       gradientUnits="userSpaceOnUse"
       x1="639.03003"
       y1="672.42999"
       x2="639.03003"
       y2="50.93"
       gradientTransform="translate(-53,-449.08002)" />
  </defs>
  <title
     id="title14">wall post</title>
  <g
     id="g1089"
     transform="matrix(0.73127351,0,0,0.73127351,-0.00327304,299.32497)">
    <g
       transform="translate(0,-398.15002)"
       style="opacity:0.1"
       id="g18">
      <path
         style="fill:#ff3030"
         inkscape:connector-curvature="0"
         id="path16"
         transform="translate(-53,-50.93)"
         d="m 119.37,170.3 c 10.2,17.75 4.55,40.79 -6.53,58 C 101.76,245.51 86,259.17 73.72,275.59 49.31,308.35 43,360.08 73.78,387 c 6.63,5.8 14.83,10.39 18.87,18.21 5.58,10.79 1.45,23.79 -2.76,35.22 l -0.35,0.94 c -15.91,43.13 7.53,90.93 51.46,104.46 24.31,7.49 46.25,19.63 62.49,39.26 14.19,17.16 22.39,38.33 31.75,58.53 16.92,36.49 38.76,71.38 68.94,97.95 30.18,26.57 69.56,44.18 109.76,42.73 91.82,-3.31 159.43,-100 251.16,-105.09 6.61,-0.37 13.65,-0.12 19.18,3.52 7.8,5.14 10.19,15.23 13.47,24 17.37,46.43 69.67,67.83 116.5,84.09 l 88,30.58 c 47.8,16.6 98,33.45 148,25.76 50,-7.69 98.82,-48.75 96.65,-99.31 -1.78,-41.53 -36.2,-78.08 -31.69,-119.41 3.12,-28.56 24.51,-52.55 28.09,-81.06 3.73,-29.67 -12.49,-58.16 -31.16,-81.52 -53.72,-67.24 -130.28,-111.56 -205,-154.31 -52.63,-30.12 -105.53,-60.36 -162.19,-82 -139.68,-53.21 -293.2,-50.92 -442,-65.44 -25.59,-2.5 -52.34,-5.44 -75.79,-16.75 -18,-8.68 -32.07,-28.75 -51.82,-33 -15.05,-3.24 -37.31,3.45 -50.45,10.76 -23.95,13.42 -17.35,24.59 -5.52,45.18 z" />
    </g>
    <path
       style="fill:url(#linearGradient1000)"
       inkscape:connector-curvature="0"
       id="path20"
       d="M 987.87,-398.15002 H 184.18 a 28,28 0 0 0 -27.88,28.15 v 565.2 a 28,28 0 0 0 27.88,28.15 h 803.69 a 28,28 0 0 0 27.88,-28.15 v -565.2 a 28,28 0 0 0 -27.88,-28.15 z" />
    <path
       style="fill:#f6f7f9"
       inkscape:connector-curvature="0"
       id="path22"
       d="m 1012.12,-338.27002 v 526.73 a 27.64,27.64 0 0 1 -27.64,27.64 H 187.89 a 27.64,27.64 0 0 1 -27.64,-27.64 v -526.73 z" />
    <path
       style="fill:#dde1ec"
       inkscape:connector-curvature="0"
       id="path24"
       d="m 368.34,-66.78002 v 282.87 H 187.89 c -15.26,0 -27.64,-12.62 -27.64,-28.18 v -254.69 z" />
    <rect
       style="fill:#dde1ec"
       id="rect26"
       height="9.75"
       width="346.82001"
       y="-273.78003"
       x="430.12" />
    <rect
       style="fill:#dde1ec"
       id="rect28"
       height="9.75"
       width="209.17"
       y="-204.42004"
       x="430.12" />
    <rect
       style="fill:#dde1ec"
       id="rect30"
       height="9.75"
       width="70.449997"
       y="-204.42004"
       x="685.90002" />
    <g
       transform="translate(0,-398.15002)"
       style="opacity:0.1"
       id="g34">
      <rect
         style="fill:#ff3030"
         id="rect32"
         height="9.75"
         width="70.449997"
         y="437.04001"
         x="224.19" />
    </g>
    <rect
       style="fill:#dde1ec"
       id="rect36"
       height="9.75"
       width="70.449997"
       y="-113.38004"
       x="685.90002" />
    <rect
       style="fill:#dde1ec"
       id="rect38"
       height="9.75"
       width="70.449997"
       y="-22.340027"
       x="685.90002" />
    <rect
       style="fill:#dde1ec"
       id="rect40"
       height="9.75"
       width="70.449997"
       y="-174.07001"
       x="685.90002" />
    <rect
       style="fill:#dde1ec"
       id="rect42"
       height="9.75"
       width="70.449997"
       y="-174.07001"
       x="807.28003" />
    <rect
       style="fill:#dde1ec"
       id="rect44"
       height="9.75"
       width="70.449997"
       y="-143.73004"
       x="685.90002" />
    <rect
       style="fill:#dde1ec"
       id="rect46"
       height="9.75"
       width="70.449997"
       y="-143.73004"
       x="807.28003" />
    <rect
       style="fill:#dde1ec"
       id="rect48"
       height="9.75"
       width="70.449997"
       y="-87.370026"
       x="807.28003" />
    <rect
       style="fill:#dde1ec"
       id="rect50"
       height="9.75"
       width="70.449997"
       y="-57.02002"
       x="807.28003" />
    <rect
       style="fill:#dde1ec"
       id="rect52"
       height="9.75"
       width="70.449997"
       y="8.0099792"
       x="807.28003" />
    <rect
       style="fill:#dde1ec"
       id="rect54"
       height="9.75"
       width="209.17"
       y="-174.07001"
       x="430.12" />
    <rect
       style="fill:#dde1ec"
       id="rect56"
       height="9.75"
       width="209.17"
       y="-143.73004"
       x="430.12" />
    <rect
       style="fill:#dde1ec"
       id="rect58"
       height="9.75"
       width="209.17"
       y="-113.38004"
       x="430.12" />
    <rect
       style="fill:#dde1ec"
       id="rect60"
       height="9.75"
       width="209.17"
       y="-83.030029"
       x="430.12" />
    <rect
       style="fill:#dde1ec"
       id="rect62"
       height="9.75"
       width="209.17"
       y="-52.690033"
       x="430.12" />
    <rect
       style="fill:#dde1ec"
       id="rect64"
       height="9.75"
       width="209.17"
       y="-22.340027"
       x="430.12" />
    <rect
       style="fill:#dde1ec"
       id="rect66"
       height="9.75"
       width="209.17"
       y="8.0099792"
       x="430.12" />
    <rect
       style="fill:#ff3030"
       id="rect68"
       height="277.45001"
       width="208.09"
       y="-338.81"
       x="160.25" />
    <path
       style="fill:#e8eaf1"
       inkscape:connector-curvature="0"
       id="path70"
       d="m 1012.12,-366.45002 a 27.64,27.64 0 0 0 -27.64,-27.63 H 187.89 a 27.64,27.64 0 0 0 -27.64,27.64 v 31.43 h 851.87 z" />
    <circle
       style="fill:#ff5252"
       id="circle72"
       r="10.84"
       cy="-364.82001"
       cx="193.85001" />
    <circle
       style="fill:#ffff00"
       id="circle74"
       r="10.84"
       cy="-364.82001"
       cx="229.61" />
    <circle
       style="fill:#69f0ae"
       id="circle76"
       r="10.84"
       cy="-364.82001"
       cx="265.38" />
    <path
       style="fill:#ffffff"
       inkscape:connector-curvature="0"
       id="path78"
       d="m 325,-200.08002 a 60.41,60.41 0 0 1 -13.52,38.17 c -0.33,0.41 -0.66,0.81 -1,1.21 v 0 a 1.64,1.64 0 0 0 -0.18,0.22 61,61 0 0 1 -10.47,9.59 l -0.5,0.37 c -0.69,0.49 -1.39,1 -2.1,1.42 l -0.49,0.31 -1.05,0.65 a 5.33,5.33 0 0 1 -0.48,0.27 3.21,3.21 0 0 1 -0.41,0.25 c -1.54,0.9 -3.13,1.73 -4.76,2.49 -0.18,0.1 -0.38,0.18 -0.57,0.27 -0.19,0.09 -0.41,0.2 -0.63,0.28 -0.22,0.08 -0.65,0.29 -1,0.42 a 59.06,59.06 0 0 1 -10.83,3.4 60.5,60.5 0 0 1 -10.75,1.31 h -0.55 -1.43 a 60.59,60.59 0 0 1 -14.17,-1.63 l -0.87,-0.21 q -3.06,-0.8 -6,-1.86 c -1.19,-0.44 -2.37,-0.92 -3.52,-1.43 -0.29,-0.13 -0.57,-0.25 -0.86,-0.39 l -0.87,-0.39 -0.76,-0.39 v 0 l -0.8,-0.41 -0.89,-0.47 -1,-0.57 -0.16,-0.09 a 60.93,60.93 0 0 1 -11.78,-8.71 c -0.3,-0.29 -0.61,-0.57 -0.9,-0.88 -0.29,-0.31 -0.63,-0.62 -0.93,-0.94 a 60.69,60.69 0 1 1 104.23,-42.26 z" />
    <path
       style="fill:url(#d2adb5db-d5c7-49ab-bfdd-50ec6aa449ae)"
       inkscape:connector-curvature="0"
       id="path80"
       d="m 307,-178.46002 a 17.33,17.33 0 0 1 -0.59,2.67 2.47,2.47 0 0 1 -0.13,0.4 c 0,-0.38 -0.07,-0.78 -0.09,-1.21 v 0 c -0.3,-4.45 -0.56,-11.48 0.34,-15.64 0.85,-3.91 -5.34,-2.72 -9.47,0.78 v 0 a 10.89,10.89 0 0 0 -2.88,3.61 c -0.09,-0.12 -0.18,-0.23 -0.28,-0.35 a 10.9,10.9 0 0 0 -8.2,-4.05 27.91,27.91 0 0 1 -17.43,-7.64 c -0.2,-0.81 -0.35,-1.61 -0.47,-2.42 0,-0.25 -0.08,-0.51 -0.11,-0.76 a 15.07,15.07 0 0 0 4.63,-7.81 c 0,0 0,-0.08 0,-0.12 a 15.1,15.1 0 0 0 0.38,-3.32 c 0,-0.46 0,-0.9 -0.05,-1.34 0,-0.16 0,-0.33 -0.05,-0.49 -0.05,-0.16 0,-0.38 -0.08,-0.56 a 6.61,6.61 0 0 0 0.73,-0.38 8.38,8.38 0 0 0 3.24,-3.67 v -0.08 a 13.83,13.83 0 0 0 0.64,-1.66 20.07,20.07 0 0 0 0.83,-5 c 0,-0.21 0,-0.42 0,-0.65 0,-1.31 -0.26,-2.95 -1.54,-3.22 -1.69,-0.36 -2.92,2.19 -4.63,1.92 a 2.6,2.6 0 0 1 -1.34,-0.81 c -1.16,-1.15 -1.94,-2.63 -3.1,-3.79 a 10.6,10.6 0 0 0 -6.62,-2.81 25,25 0 0 0 -7.28,0.67 12.26,12.26 0 0 0 -3.76,1.28 4.48,4.48 0 0 0 -2.25,3.09 4.41,4.41 0 0 0 0,0.85 c 0,0.42 0,0.86 0,1.29 a 4.8,4.8 0 0 1 -0.07,0.55 4.57,4.57 0 0 1 -2.31,2.76 c -1.06,0.63 -2.24,1.07 -3.25,1.79 a 8.51,8.51 0 0 0 -3.13,5 13.22,13.22 0 0 0 -0.35,3.39 22.43,22.43 0 0 0 0.17,3.08 33.06,33.06 0 0 0 2.86,9.92 15.84,15.84 0 0 0 1.42,2.5 c 0,0 0,0 0,0 0.14,0.2 0.28,0.38 0.43,0.55 a 15.09,15.09 0 0 0 3.23,2.73 l 0.69,0.47 a 2,2 0 0 0 1.71,0.44 1.82,1.82 0 0 0 0.52,-0.3 4,4 0 0 0 1.25,-3.15 v -0.16 a 1,1 0 0 1 0,0.17 1.64,1.64 0 0 1 0,0.23 h 0.1 a 14.8,14.8 0 0 1 0,1.53 5.59,5.59 0 0 1 0,0.62 c 0,0.12 0,0.24 0,0.35 l -0.16,0.14 v 0 c -0.33,0.28 -0.93,0.77 -1.76,1.42 v 0 a 52.89,52.89 0 0 1 -11.24,6.69 16,16 0 0 0 -9.21,10.23 35.89,35.89 0 0 1 -4.37,9.47 c -0.48,0.7 -1.8,6 -3.34,11.44 0.3,0.33 0.62,0.64 0.93,0.94 0.31,0.3 0.6,0.59 0.9,0.88 a 60.93,60.93 0 0 0 11.78,8.71 l 0.16,0.09 1,0.57 0.89,0.47 c 0,-0.75 -0.1,-1.44 -0.15,-2.09 0,-0.39 -0.06,-0.76 -0.1,-1.12 0.23,-0.38 0.43,-0.72 0.62,-1 0,0.29 0.07,0.61 0.1,1 v 0 c 0.11,1 0.22,2.23 0.34,3.64 q 0,0.67 0.1,1.4 c 0,-0.49 -0.05,-1 -0.09,-1.4 l 0.76,0.39 0.87,0.39 c 0.28,0.14 0.56,0.26 0.86,0.39 1.15,0.51 2.33,1 3.52,1.43 q 2.91,1.07 6,1.86 l 0.87,0.21 a 60.59,60.59 0 0 0 14.19,1.67 h 1.43 0.55 a 60.5,60.5 0 0 0 10.84,-1.35 59.06,59.06 0 0 0 10.83,-3.4 q 0.49,-0.2 1,-0.42 c 0.22,-0.09 0.42,-0.18 0.63,-0.28 0.21,-0.1 0.39,-0.17 0.57,-0.27 -1,-3.51 -1.54,-5.76 -1.54,-5.76 l 1.32,-3.39 0.16,-0.41 0.4,-1.05 v 0 c 0,0.13 0.06,0.26 0.11,0.39 v 0 a 15.93,15.93 0 0 0 4.7,7.49 5.33,5.33 0 0 0 0.48,-0.27 l 1.05,-0.65 0.49,-0.31 c 0.72,-0.47 1.41,-0.93 2.1,-1.42 l 0.5,-0.37 a 61,61 0 0 0 10.47,-9.59 l 0.18,-0.22 v 0 c 0.34,-0.4 0.67,-0.8 1,-1.21 z m -8.72,4.56 a 1.1,1.1 0 0 1 0.09,0.15 l -0.08,-0.07 z" />
    <path
       style="fill:url(#fd1a872a-c2fb-4cd4-906a-a62e176bbce4)"
       inkscape:connector-curvature="0"
       id="path82"
       d="m 298.44,-175.77002 v 0.08 l 0.07,0.07 c -0.02,-0.06 -0.05,-0.1 -0.07,-0.15 z m -61.16,30 c -0.1,-1.4 -0.2,-2.66 -0.29,-3.74 -0.07,-0.76 -0.14,-1.44 -0.2,-2 a 0.18,0.18 0 0 1 0,-0.08 c 0,-0.14 0,-0.27 0,-0.4 a 23,23 0 0 0 -2.36,4.7 l 0.16,0.09 1,0.57 0.89,0.47 0.8,0.41 q 0,0.67 0.1,1.4 c -0.05,-0.48 -0.07,-0.94 -0.1,-1.39 z m 13.31,-57.17 v 0 0 l 0.05,0.09 v 0 a 0.23,0.23 0 0 1 0,0.07 0.39,0.39 0 0 0 -0.05,-0.13 z" />
    <path
       style="fill:#e0a17e"
       inkscape:connector-curvature="0"
       id="path84"
       d="m 268,-213.15002 c 0,0 -3.61,16.22 6.31,24.79 9.92,8.57 -23.43,15.28 -29.31,8.11 -5.88,-7.17 4.08,-10.83 4.08,-10.83 0,0 5,-4.06 0,-16.22 z" />
    <path
       style="fill:#f0f1f5"
       inkscape:connector-curvature="0"
       id="path86"
       d="m 277,-140.74002 a 60.5,60.5 0 0 1 -10.75,1.31 h -0.55 -1.43 a 60.59,60.59 0 0 1 -14.16,-1.65 l -0.87,-0.21 q -3.06,-0.8 -6,-1.86 l -1,-15 4.34,-20.77 2.55,-12.24 0.72,-3.42 0.73,1 0.16,0.22 0.2,0.26 8,10.65 8.19,-8.82 0.42,-0.46 2.25,-2.43 0.85,-0.91 0.4,3.09 1.44,11.11 2.67,20.49 z" />
    <path
       style="opacity:0.1"
       inkscape:connector-curvature="0"
       id="path88"
       d="m 299.32,-150.52002 c -0.69,0.49 -1.39,1 -2.1,1.42 l -0.49,0.31 -1.05,0.65 a 5.33,5.33 0 0 1 -0.48,0.27 3.21,3.21 0 0 1 -0.41,0.25 16.08,16.08 0 0 1 -4.79,-7.06 11,11 0 0 1 -0.3,-1.06 1,1 0 0 1 0,-0.17 l -0.57,1.5 -1.75,4.33 c 0,0 0.52,2.12 1.45,5.48 q -0.49,0.23 -1,0.42 a 59.06,59.06 0 0 1 -10.83,3.4 60.5,60.5 0 0 1 -10.75,1.31 h -0.55 a 99.44,99.44 0 0 1 -0.53,-14 l 1.32,-25.17 0.67,-12.7 0.37,-7 c 0,0 0.13,0.14 0.38,0.37 0.25,0.23 0.42,0.4 0.72,0.67 v 0 a 27,27 0 0 0 16,6.61 10.62,10.62 0 0 1 8.32,4.42 19.59,19.59 0 0 1 3.39,8.65 l 0.3,2.75 c 0,0 0,0 0,0 l 0.08,0.78 0.11,1 z" />
    <path
       style="fill:#293158"
       inkscape:connector-curvature="0"
       id="path90"
       d="m 299.82,-150.88002 -0.5,0.37 c -0.69,0.49 -1.39,1 -2.1,1.42 l -0.49,0.31 -1.05,0.65 a 16.58,16.58 0 0 1 -5.18,-7.22 v 0 a 2.77,2.77 0 0 1 -0.12,-0.36 c -0.11,-0.35 -0.21,-0.72 -0.29,-1.08 l -0.41,1.07 -0.56,1.45 -1.28,3.34 c 0,0 0.59,2.4 1.63,6.1 -0.21,0.1 -0.41,0.2 -0.63,0.28 -0.22,0.08 -0.65,0.29 -1,0.42 a 59.06,59.06 0 0 1 -10.83,3.4 60.5,60.5 0 0 1 -10.75,1.31 99.49,99.49 0 0 1 -0.63,-14.92 l 1.28,-24.39 0.68,-13 0.33,-6.13 0.06,-1.27 a 2,2 0 0 0 0.17,0.17 27.09,27.09 0 0 0 17,7.49 10.62,10.62 0 0 1 8.24,4.31 19.54,19.54 0 0 1 3.48,8.76 l 0.53,4.93 v 0.07 0 l 0.11,1 z" />
    <path
       style="opacity:0.1"
       inkscape:connector-curvature="0"
       id="path92"
       d="m 251.2,-196.08002 v 0.61 l -0.16,2.32 -0.56,7.94 c 0,0 -0.33,2.29 -0.57,7.45 -0.35,6.8 -0.56,18.58 0.25,36.7 l -0.87,-0.21 q -3.06,-0.8 -6,-1.86 c -1.19,-0.44 -2.37,-0.92 -3.52,-1.43 -0.29,-0.13 -0.57,-0.25 -0.86,-0.39 -0.29,-4 -0.64,-6.45 -0.64,-6.45 0,0 -0.27,0.34 -0.68,1 -0.17,0.27 -0.38,0.6 -0.6,1 l -0.05,0.09 v 0 q -0.29,0.5 -0.62,1.14 c -0.25,0.5 -0.5,1 -0.74,1.63 l -1,-0.57 -0.16,-0.09 a 60.93,60.93 0 0 1 -11.78,-8.71 c 1.61,-5.67 3,-11.37 3.5,-12.1 a 34.76,34.76 0 0 0 4.25,-9.27 15.71,15.71 0 0 1 9,-10 36.5,36.5 0 0 0 11.79,-8.8 z" />
    <path
       style="fill:#293158"
       inkscape:connector-curvature="0"
       id="path94"
       d="m 251.21,-196.36002 a 54.08,54.08 0 0 1 -12.81,8.07 15.71,15.71 0 0 0 -9,10 34.76,34.76 0 0 1 -4.25,9.27 c -0.49,0.73 -1.89,6.44 -3.5,12.12 0.29,0.3 0.6,0.59 0.9,0.88 a 60.93,60.93 0 0 0 11.78,8.71 l 0.16,0.09 a 22.88,22.88 0 0 1 2.2,-4.24 l 0.05,-0.08 c 0.35,-0.52 0.57,-0.8 0.57,-0.8 0,0 0.09,0.66 0.22,1.85 0.13,1.19 0.3,3 0.46,5.1 l 0.87,0.39 c 0.28,0.14 0.56,0.26 0.86,0.39 1.15,0.51 2.33,1 3.52,1.43 q 2.91,1.07 6,1.86 c -0.82,-17.94 -0.64,-29.76 -0.31,-36.73 0.26,-5.62 0.61,-8.11 0.61,-8.11 l 1.27,-7.3 0.36,-2.06 0.17,-1 z" />
    <path
       style="opacity:0.1"
       inkscape:connector-curvature="0"
       id="path96"
       d="m 257.64,-197.37002 a 14.81,14.81 0 0 1 -6.49,-1.49 29.17,29.17 0 0 0 -2.07,-7.53 l 18.92,-5.85 a 36.22,36.22 0 0 0 -0.39,11 14.82,14.82 0 0 1 -9.97,3.87 z" />
    <circle
       style="fill:#e0a17e"
       id="circle98"
       r="14.87"
       cy="-213.14001"
       cx="257.64001" />
    <g
       transform="translate(0,-398.15002)"
       style="opacity:0.1"
       id="g102">
      <path
         inkscape:connector-curvature="0"
         id="path100"
         transform="translate(-53,-50.93)"
         d="m 340.86,304.94 c -1.17,-4.11 -1.82,-6.81 -1.82,-6.81 l 2.25,-5.86 a 12.65,12.65 0 0 0 0.77,2.4 l 0.05,0.13 -1.28,3.34 c 0,0 0.59,2.4 1.63,6.1 -0.21,0.1 -0.41,0.2 -0.63,0.28 -0.22,0.08 -0.65,0.29 -0.97,0.42 z" />
    </g>
    <path
       style="fill:#e0a17e"
       inkscape:connector-curvature="0"
       id="path104"
       d="m 305.41,-172.14002 c 0,0 -1.35,-13.07 0,-19.38 1.35,-6.31 -15.77,0.9 -12.17,9.46 a 73.58,73.58 0 0 0 7.21,13.52 z" />
    <path
       style="opacity:0.1"
       inkscape:connector-curvature="0"
       id="path106"
       d="m 310.29,-160.48002 a 61.05,61.05 0 0 1 -10.47,9.59 l -0.5,0.37 c -0.69,0.49 -1.39,1 -2.1,1.42 a 42.26,42.26 0 0 1 -4.3,-6.13 l -0.13,-0.23 3.61,-18.93 0.38,0.39 c 0.16,0.15 0.37,0.35 0.62,0.55 v 0 h 0.05 c 1.87,1.6 5.82,4 7.72,-1.58 a 16.85,16.85 0 0 0 0.69,-3 l 0.37,1.38 v 0 l 0.22,0.81 4,15.09 v 0 z" />
    <path
       style="fill:#293158"
       inkscape:connector-curvature="0"
       id="path108"
       d="m 310.29,-160.48002 a 61,61 0 0 1 -10.47,9.59 l -0.5,0.37 c -0.69,0.49 -1.39,1 -2.1,1.42 l -0.49,0.31 a 43.62,43.62 0 0 1 -3.94,-5.78 l 0.13,-0.67 3.48,-18.26 c 0,0 0.18,0.21 0.49,0.5 l 0.62,0.55 c 0.26,0.22 0.56,0.46 0.89,0.68 2.07,1.42 5.22,2.49 6.82,-2.5 a 16.89,16.89 0 0 0 0.64,-2.84 l 0.46,1.7 z" />
    <path
       style="opacity:0.02000002"
       inkscape:connector-curvature="0"
       id="path110"
       d="m 310.29,-160.48002 a 61,61 0 0 1 -10.47,9.59 l -0.5,0.37 c -0.69,0.49 -1.39,1 -2.1,1.42 l -0.49,0.31 a 43.62,43.62 0 0 1 -3.94,-5.78 l 0.13,-0.67 3.48,-18.26 c 0,0 0.18,0.21 0.49,0.5 l 0.62,0.55 c 0.26,0.22 0.56,0.46 0.89,0.68 2.07,1.42 5.22,2.49 6.82,-2.5 a 16.89,16.89 0 0 0 0.64,-2.84 l 0.46,1.7 z" />
    <path
       style="opacity:0.1"
       inkscape:connector-curvature="0"
       id="path112"
       d="m 236.79,-151.50002 -0.05,0.08 c 0,-0.05 0,-0.11 0,-0.15 0.63,-2.19 1.2,-3.67 1.71,-4.11 0,0 0.67,4.45 1.27,11.12 -0.29,-0.13 -0.57,-0.25 -0.86,-0.39 l -0.87,-0.39 c -0.15,-2.15 -0.31,-3.9 -0.46,-5.1 -0.15,-1.2 -0.22,-1.85 -0.22,-1.85 0,0 -0.17,0.27 -0.52,0.79 z" />
    <path
       style="opacity:0.1"
       inkscape:connector-curvature="0"
       id="path114"
       d="m 257.82,-217.24002 a 4.08,4.08 0 0 1 2.55,-0.46 2.91,2.91 0 0 1 1,0.7 c 1.17,1.11 2.33,2.4 3.91,2.74 a 7.56,7.56 0 0 0 2.93,-0.13 14,14 0 0 0 4.82,-1.47 c 3.35,-2 4.42,-6.33 4.63,-10.22 0.07,-1.31 -0.2,-3 -1.49,-3.28 -1.64,-0.35 -2.84,2.14 -4.5,1.87 a 2.51,2.51 0 0 1 -1.3,-0.79 c -1.13,-1.13 -1.9,-2.58 -3,-3.72 a 10.31,10.31 0 0 0 -6.44,-2.76 24.08,24.08 0 0 0 -7.09,0.67 11.65,11.65 0 0 0 -3.65,1.25 4.39,4.39 0 0 0 -2.2,3 c -0.11,0.87 0.12,1.77 -0.05,2.63 a 4.42,4.42 0 0 1 -2.24,2.71 c -1,0.62 -2.18,1 -3.16,1.76 a 8.37,8.37 0 0 0 -3.05,4.86 16.46,16.46 0 0 0 -0.16,5.83 32.28,32.28 0 0 0 2.78,9.72 13.77,13.77 0 0 0 1.81,3 16.81,16.81 0 0 0 3.65,3 2.22,2.22 0 0 0 1.83,0.55 1.59,1.59 0 0 0 0.51,-0.3 c 1.28,-1.07 1.4,-3 1,-4.63 -0.4,-1.63 -1.08,-3.18 -1.16,-4.84 a 2.33,2.33 0 0 1 0.26,-1.35 6,6 0 0 1 0.9,-0.91 5.44,5.44 0 0 0 1,-1.69 16.53,16.53 0 0 0 1.55,-4.86 6.55,6.55 0 0 0 -0.87,-4 5.17,5.17 0 0 0 5.23,1.12 z" />
    <path
       style="fill:#463e3b"
       inkscape:connector-curvature="0"
       id="path116"
       d="m 257.82,-217.76002 a 4.08,4.08 0 0 1 2.55,-0.46 2.91,2.91 0 0 1 1,0.7 c 1.17,1.11 2.33,2.4 3.91,2.74 a 7.56,7.56 0 0 0 2.93,-0.13 14,14 0 0 0 4.82,-1.47 c 3.35,-2 4.42,-6.33 4.63,-10.22 0.07,-1.31 -0.2,-3 -1.49,-3.28 -1.64,-0.35 -2.84,2.14 -4.5,1.87 a 2.51,2.51 0 0 1 -1.3,-0.79 c -1.13,-1.13 -1.9,-2.58 -3,-3.72 a 10.31,10.31 0 0 0 -6.44,-2.76 24.08,24.08 0 0 0 -7.09,0.67 11.65,11.65 0 0 0 -3.65,1.25 4.39,4.39 0 0 0 -2.2,3 c -0.11,0.87 0.12,1.77 -0.05,2.63 a 4.42,4.42 0 0 1 -2.24,2.71 c -1,0.62 -2.18,1 -3.16,1.76 a 8.37,8.37 0 0 0 -3.05,4.86 16.46,16.46 0 0 0 -0.16,5.83 32.28,32.28 0 0 0 2.78,9.72 13.77,13.77 0 0 0 1.81,3 16.81,16.81 0 0 0 3.65,3 2.22,2.22 0 0 0 1.83,0.55 1.59,1.59 0 0 0 0.51,-0.3 c 1.28,-1.07 1.4,-3 1,-4.63 -0.4,-1.63 -1.08,-3.18 -1.16,-4.84 a 2.33,2.33 0 0 1 0.26,-1.35 6,6 0 0 1 0.9,-0.91 5.44,5.44 0 0 0 1,-1.69 16.53,16.53 0 0 0 1.55,-4.86 6.55,6.55 0 0 0 -0.87,-4 5.17,5.17 0 0 0 5.23,1.12 z" />
    <ellipse
       style="fill:#cd9494"
       id="ellipse118"
       ry="9.25"
       rx="25.190001"
       cy="158.94995"
       cx="176" />
    <ellipse
       style="opacity:0.05"
       id="ellipse120"
       ry="4.7199998"
       rx="12.85"
       cy="157.91998"
       cx="176" />
    <path
       style="fill:#ff7361"
       inkscape:connector-curvature="0"
       id="path122"
       d="m 150.8,156.91998 c 0,0 27.76,15.42 50.38,2.06 0,0 -3.08,53.47 -18.51,58.61 h -20.55 c 0,0 -17.48,-36.03 -11.32,-60.67 z" />
    <path
       style="fill:#ff3030"
       inkscape:connector-curvature="0"
       id="path124"
       d="m 197.75,58.91998 c 7.07,25.83 -23.07,99.41 -23.07,99.41 0,0 -63.39,-48 -70.46,-73.82 a 48.483783,48.483783 0 1 1 93.53,-25.59 z" />
    <path
       style="opacity:0.1"
       inkscape:connector-curvature="0"
       id="path126"
       d="m 197.75,58.91998 c 7.07,25.83 -23.07,99.41 -23.07,99.41 0,0 -63.39,-48 -70.46,-73.82 a 48.483783,48.483783 0 1 1 93.53,-25.59 z" />
    <path
       style="fill:none;stroke:#535461;stroke-miterlimit:10"
       inkscape:connector-curvature="0"
       id="path128"
       stroke-miterlimit="10"
       d="m 138.45,25.08998 c 0,0 39.46,59.57 36.49,133.37" />
    <path
       style="fill:#ff3030"
       inkscape:connector-curvature="0"
       id="path130"
       d="m 207.82,106.11998 c 0,0 -35.82,-19.47 -31.25,52.39 0,0 29.85,-1.07 40.44,-25.42 a 21.12,21.12 0 0 0 -8.66,-26.67 z" />
    <path
       style="fill:none;stroke:#535461;stroke-miterlimit:10"
       inkscape:connector-curvature="0"
       id="path132"
       stroke-miterlimit="10"
       d="m 208.41,106.23998 c 0,0 -4.62,37.3 -31.84,52.27" />
    <path
       style="opacity:0.05"
       inkscape:connector-curvature="0"
       id="path134"
       d="m 197.82,160.68998 c -1,12.3 -5.31,50.5 -18.22,54.81 h -18.43 c 0.59,1.31 0.95,2.06 0.95,2.06 h 20.57 c 15.41,-5.15 18.5,-58.64 18.5,-58.64 a 37.44,37.44 0 0 1 -3.37,1.77 z" />
    <rect
       style="fill:#dde1ec"
       id="rect136"
       height="121.39"
       width="209.17"
       y="74.659973"
       x="430.12" />
    <path
       style="fill:url(#636ac3f3-8a9d-4cd8-9529-d45e35aeb867)"
       inkscape:connector-curvature="0"
       id="path138"
       d="m 982.83,-164.94002 a 8.76,8.76 0 0 0 0,-1.18 c -0.36,-4.88 -5,-8.41 -9.6,-10.29 -4.6,-1.88 -9.74,-2.8 -13.81,-5.65 -6.88,-4.82 -9,-13.83 -9.62,-22.07 -0.19,-2.56 -0.27,-5.12 -0.28,-7.69 -0.01,-2.57 0.16,-5.41 0.4,-8.11 0.4,-4.48 1.06,-9.12 1,-13.61 a 26.15,26.15 0 0 0 -2.4,-12.45 c -4.08,-8.06 -13.24,-12.18 -21.72,-15.69 -3.26,-1.35 -6.6,-2.72 -10.14,-2.87 -3.74,-0.16 -7.38,1.05 -10.92,2.25 -5.62,1.9 -11.32,4.37 -17.13,5.66 -3.26,0.72 -6.83,0.18 -10,1.33 -6.22,2.28 -7.55,7.87 -7.45,14 0,0.39 0,0.77 0,1.16 -0.62,-0.57 -1.26,-1.11 -1.91,-1.63 l -0.38,-0.3 q -1,-0.81 -2.13,-1.53 l -0.36,-0.23 a 35.84,35.84 0 0 0 -4.79,-2.61 l -0.25,-0.11 q -1.25,-0.55 -2.54,-1 l -0.16,-0.06 a 36.46,36.46 0 0 0 -5.46,-1.44 v 0 a 36.37,36.37 0 0 0 -32.52,10.22 l -6.87,7 v 0 c -31.23,-7 -32.63,20.13 -32.63,20.13 l 0.23,-0.05 -0.08,0.19 a 96.44,96.44 0 0 0 2.69,10.16 l -241.17,246.33 -24.38,75.56 13.69,-4.88 62.54,-22.34 223.94,-228.76 c 16.76,11.91 34.18,27.87 34.18,27.87 0,0 -10.8,5.71 -6.8,31.87 4.89,32 -2.46,77.55 -2.46,77.55 v 29.46 l 1.38,-0.38 c -0.17,1 -0.35,2 -0.52,3.15 a 168.08,168.08 0 0 0 -0.86,44.72 c 3.7,31.26 18.48,73.94 18.48,73.94 0,0 5.54,15 6.78,27.05 a 25.22,25.22 0 0 0 1.58,6.95 55.26,55.26 0 0 1 4.32,20.87 c 0,13.08 1.71,32.71 9.5,52.74 6.25,16.08 8.56,25.5 9.25,31 -4.43,5.86 -10.22,12.25 -14.79,12.89 -8.62,1.2 -25.26,2.4 -14.17,16.83 a 10.21,10.21 0 0 0 1.29,1.37 c -8.42,1.36 -17.68,4.36 -8.68,16.06 11.09,14.43 76.39,7.82 76.39,7.82 0,0 0.42,-8 0,-16.82 4.58,-0.32 7.41,-0.61 7.41,-0.61 0,0 1.85,-34.87 -6.16,-39.08 a 16.9,16.9 0 0 0 -4.32,1.06 c -0.86,-4.82 -1.52,-10.81 -1.93,-15.25 l 3.17,-0.24 v -52.3 c 0,0 -3.7,-32.46 -17.25,-46.89 a 29.15,29.15 0 0 1 -4.43,-6 c 0.1,-4.17 0.11,-10 0.06,-16.73 a 13.89,13.89 0 0 1 1.91,-2.52 c 0,0 7.39,-9 32.65,-66.13 14.9,-33.69 11.58,-53.14 6.35,-63.44 -1,-3.66 -3.6,-14.11 -7,-33.35 -4.31,-24.65 0.62,-48.7 0.62,-48.7 0,0 16,-41.48 23.41,-58.31 a 27.39,27.39 0 0 0 2.08,-12.85 c 1.93,-1.41 2.86,-3.76 3.69,-6 l 7.59,-20.25 c 0.82,-2.19 1.66,-4.47 1.48,-6.8 z m -103.08,-36.46 a 30.8,30.8 0 0 0 2.75,3.66 v 0 c 0,0 -1.13,-1.18 -3,-3.08 0.09,-0.19 0.17,-0.39 0.25,-0.58 z m -37.32,41.57 20.89,-21.34 c 7.22,6.6 14.95,13.34 21.41,18.89 a 61.84,61.84 0 0 1 -2.44,8.37 c -2.8,1.39 -6.5,1.84 -11,-0.61 -7.13,-3.85 -20.29,-4.99 -28.86,-5.31 z" />
    <path
       style="fill:#febdd5"
       inkscape:connector-curvature="0"
       id="path140"
       d="m 825.62,-238.58002 c 0,0 -15.49,8.94 -10.72,21.5 0,0 16.09,4.77 22.64,16.69 6.55,11.92 57.21,54.82 57.21,54.82 l 36.94,-18.51 c 0,0 -12.85,-17.16 -53.5,-29.14 0,0 -24,-25.69 -32.31,-30.45 -8.31,-4.76 -20.26,-14.91 -20.26,-14.91 z" />
    <path
       style="opacity:0.05"
       inkscape:connector-curvature="0"
       id="path142"
       d="m 825.62,-238.58002 c 0,0 -15.49,8.94 -10.72,21.5 0,0 16.09,4.77 22.64,16.69 6.55,11.92 57.21,54.82 57.21,54.82 l 36.94,-18.51 c 0,0 -12.85,-17.16 -53.5,-29.14 0,0 -24,-25.69 -32.31,-30.45 -8.31,-4.76 -20.26,-14.91 -20.26,-14.91 z" />
    <path
       style="fill:#ff3030"
       inkscape:connector-curvature="0"
       id="path144"
       d="m 549.62,47.28998 268.78,-281.37 a 34.68,34.68 0 0 1 49,-1.12 v 0 a 34.68,34.68 0 0 1 1.12,49 l -268.74,281.41 -73.74,27 z" />
    <path
       style="opacity:0.1;fill:#ffffff"
       inkscape:connector-curvature="0"
       id="path146"
       d="m 852.75,-240.19002 v 0 a 34.68,34.68 0 0 1 1.12,49 l -268.77,281.37 -55.36,20.25 -3.74,11.76 73.74,-27 268.81,-281.27 a 34.68,34.68 0 0 0 -1.12,-49 v 0 a 34.52,34.52 0 0 0 -20.31,-9.41 34.82,34.82 0 0 1 5.63,4.3 z" />
    <polygon
       transform="translate(0,-398.15002)"
       style="fill:#efc8c4"
       id="polygon148"
       points="539.28,515.5 526.04,520.34 534.43,493.71 549.62,445.45 599.78,493.36 " />
    <path
       style="fill:#727a9c"
       inkscape:connector-curvature="0"
       id="path150"
       d="m 534.43,95.54998 a 14.75,14.75 0 0 1 5.16,2.07 c 1.82,1.31 3.14,3.58 2.64,5.76 a 13.82,13.82 0 0 1 -2.08,3.77 11.77,11.77 0 0 0 -0.87,10.2 l -13.28,4.84 z" />
    <path
       style="fill:#ffb9b9"
       inkscape:connector-curvature="0"
       id="path152"
       d="m 922.16,269.71998 c 0,0 1.79,26.22 4.77,29.2 2.98,2.98 -26.82,4.77 -26.82,4.77 l 4.17,-34 z" />
    <path
       style="opacity:0.05"
       inkscape:connector-curvature="0"
       id="path154"
       d="m 922.16,269.71998 c 0,0 1.79,26.22 4.77,29.2 2.98,2.98 -26.82,4.77 -26.82,4.77 l 4.17,-34 z" />
    <path
       style="fill:#cbcdda"
       inkscape:connector-curvature="0"
       id="path156"
       d="m 928.71,289.97998 c 0,0 -4.17,0 -19.07,7.75 0,0 -10.13,-1.79 -14.3,-16.09 0,0 -12.51,21.45 -20.86,22.64 -8.35,1.19 -24.43,2.38 -13.71,16.69 10.72,14.31 73.89,7.75 73.89,7.75 0,0 1.8,-34.57 -5.95,-38.74 z" />
    <path
       style="opacity:0.05"
       inkscape:connector-curvature="0"
       id="path158"
       d="m 928.71,289.97998 c 0,0 -4.17,0 -19.07,7.75 0,0 -10.13,-1.79 -14.3,-16.09 0,0 -12.51,21.45 -20.86,22.64 -8.35,1.19 -24.43,2.38 -13.71,16.69 10.72,14.31 73.89,7.75 73.89,7.75 0,0 1.8,-34.57 -5.95,-38.74 z" />
    <path
       style="fill:#ffb9b9"
       inkscape:connector-curvature="0"
       id="path160"
       d="m 919.77,310.23998 -4.17,11.32 -27.41,-7.75 1.56,-11.24 0.38,-2.71 1,-7.5 c 0,0 23.24,-6 23.24,-3 a 46.23,46.23 0 0 0 1.53,7.26 c 1,3.66 2.15,7.84 3,10.59 0.52,1.84 0.87,3.03 0.87,3.03 z" />
    <path
       style="fill:#4c4c78"
       inkscape:connector-curvature="0"
       id="path162"
       d="m 904.82,154.82998 c -1.88,3.18 -4,9.14 -0.05,16.58 a 28.87,28.87 0 0 0 4.28,5.94 c 13.11,14.3 16.69,46.48 16.69,46.48 v 51.84 l -8.94,0.69 -14.3,1.1 -21.5,-88.18 c 0,0 -12.51,-64.36 -6.55,-75.68 5.96,-11.32 11.32,-82.23 11.32,-82.23 l 4.95,-5.12 11.74,-12.16 h 34 a 22.84,22.84 0 0 1 6.61,7.39 c 5.7,9.44 10.82,29.07 -4.82,65.31 -24.43,56.61 -31.58,65.55 -31.58,65.55 a 13.73,13.73 0 0 0 -1.85,2.49 z" />
    <path
       style="opacity:0.05"
       inkscape:connector-curvature="0"
       id="path164"
       d="m 904.82,154.82998 c -1.88,3.18 -4,9.14 -0.05,16.58 a 28.87,28.87 0 0 0 4.28,5.94 c 13.11,14.3 16.69,46.48 16.69,46.48 v 51.84 l -8.94,0.69 -14.3,1.1 -21.5,-88.18 c 0,0 -12.51,-64.36 -6.55,-75.68 5.96,-11.32 11.32,-82.23 11.32,-82.23 l 4.95,-5.12 11.74,-12.16 h 34 a 22.84,22.84 0 0 1 6.61,7.39 c 5.7,9.44 10.82,29.07 -4.82,65.31 -24.43,56.61 -31.58,65.55 -31.58,65.55 a 13.73,13.73 0 0 0 -1.85,2.49 z" />
    <path
       style="opacity:0.1"
       inkscape:connector-curvature="0"
       id="path166"
       d="m 915.94,296.63998 -25.81,3.22 1,-7.5 c 0,0 23.24,-6 23.24,-3 a 46.23,46.23 0 0 0 1.57,7.28 z" />
    <path
       style="fill:#4c4c78"
       inkscape:connector-curvature="0"
       id="path168"
       d="m 903.09,78.43998 c 0,0 1.48,46.91 1.73,76.39 0.05,6.67 0,12.45 -0.05,16.58 a 36.74,36.74 0 0 1 -0.48,6.54 c -1.79,5.36 1.79,17.28 1.79,17.28 14.9,39.33 10.73,73.89 10.73,73.89 v 26.22 l -28.62,3.58 c 0,0 4.77,-3.58 -8.34,-38.14 -7.53,-19.86 -9.16,-39.31 -9.19,-52.28 a 55.94,55.94 0 0 0 -4.18,-20.68 25.52,25.52 0 0 1 -1.48,-6.9 c -1.19,-11.92 -6.55,-26.82 -6.55,-26.82 0,0 -14.3,-42.31 -17.88,-73.3 a 170.67,170.67 0 0 1 0.83,-44.33 110.63,110.63 0 0 1 2.15,-11.09 c 0,0 58.25,-36.66 80.25,-11.32 a 28.69,28.69 0 0 1 5,8.34 55.06,55.06 0 0 1 2.81,9.28 c 6.76,33.66 -28.52,46.76 -28.52,46.76 z" />
    <circle
       style="fill:#ffb9b9"
       id="circle170"
       r="30.389999"
       cy="-212.95001"
       cx="901.29999" />
    <path
       style="fill:#ffb9b9"
       inkscape:connector-curvature="0"
       id="path172"
       d="m 884.62,-193.89002 c 0,0 12.51,35.16 0,53.63 -12.51,18.47 39.92,12.51 39.92,12.51 l 20.26,-24.43 c 0,0 -23.84,0 -25,-41.71 -1.16,-41.71 -35.18,0 -35.18,0 z" />
    <path
       style="opacity:0.1"
       inkscape:connector-curvature="0"
       id="path174"
       d="m 944.8,28.37998 a 78.2,78.2 0 0 1 -13.28,3.33 c -7.42,1.14 -16.17,1.19 -21.29,-3.33 -3,-2.68 -10.51,-3 -19.49,-2.15 -18.91,1.81 -44.51,8.87 -49.41,10.26 a 110.63,110.63 0 0 1 2.15,-11.09 c 0,0 58.25,-36.66 80.25,-11.32 h 12.71 a 22.84,22.84 0 0 1 6.61,7.39 c 1.11,4.74 1.75,6.91 1.75,6.91 z" />
    <path
       style="opacity:0.1"
       inkscape:connector-curvature="0"
       id="path176"
       d="m 919.77,310.23998 -4.17,11.32 -27.41,-7.75 1.56,-11.24 c 4.71,10.42 12.74,11.83 12.74,11.83 8.66,-4.5 13.7,-6.39 16.4,-7.18 0.53,1.83 0.88,3.02 0.88,3.02 z" />
    <path
       style="fill:#cbcdda"
       inkscape:connector-curvature="0"
       id="path178"
       d="m 921.56,307.25998 c 0,0 -4.17,0 -19.07,7.75 0,0 -10.13,-1.79 -14.3,-16.09 0,0 -12.51,21.45 -20.86,22.64 -8.35,1.19 -24.43,2.36 -13.7,16.69 10.73,14.33 73.89,7.75 73.89,7.75 0,0 1.79,-34.57 -5.96,-38.74 z" />
    <path
       style="fill:#ffb9b9"
       inkscape:connector-curvature="0"
       id="path180"
       d="m 780.19,-207.13002 c 0,0 1.35,-26.89 31.56,-19.95 l -7.75,14.53 z" />
    <path
       style="fill:#febdd5"
       inkscape:connector-curvature="0"
       id="path182"
       d="m 921,-145.02002 c 0,0 -29.2,-4.77 -36.95,-10.73 0,0 -6,11.32 -16.69,5.36 -10.69,-5.96 -35.75,-5.36 -35.75,-5.36 0,0 -20.86,-11.32 -25,-36.95 0,0 -4.17,-15.49 -3,-19.66 0,0 -15.49,-16.09 -23.24,5.36 3,14.9 5.36,13.71 4.77,25.62 l 9.53,26.22 c 0,0 0.6,8.94 17.88,20.86 17.28,11.92 36.95,30.39 36.95,30.39 0,0 -10.43,5.66 -6.55,31.58 4.73,31.68 -2.38,76.87 -2.38,76.87 v 29.2 c 0,0 59.59,-17.28 69.72,-8.34 10.13,8.94 34.56,0 34.56,0 0,0 -3,-10.13 -7.15,-34.56 -4.15,-24.43 0.6,-48.27 0.6,-48.27 0,0 15.49,-41.12 22.64,-57.8 7.15,-16.68 -5.36,-39.33 -17.88,-47.67 -12.52,-8.34 -17.17,-3.33 -17.17,-3.33 0,0 21.89,15.85 -4.89,21.21 z" />
    <path
       style="opacity:0.1"
       inkscape:connector-curvature="0"
       id="path184"
       d="m 868.43,-220.39002 a 10.54,10.54 0 0 0 0.62,3.64 11.48,11.48 0 0 0 2.79,3.47 c 4.46,4.36 8.38,9.54 9.95,15.58 1.06,4.09 1,8.37 0.94,12.6 -0.26,17.11 -1,35.58 -11.54,49 -3.88,4.95 -8.88,8.88 -13.57,13.07 a 4.09,4.09 0 0 0 -1.42,1.95 3.57,3.57 0 0 0 0.44,2.36 c 2.18,4.53 6.77,7.31 11.12,9.83 2,1.15 4.08,2.34 6.38,2.41 5.42,0.18 9,-5.55 13.93,-7.8 7.18,-3.28 15.23,1.28 22.36,4.68 a 78.79,78.79 0 0 0 16.14,5.63 c 7.63,1.76 16.25,2.19 22.67,-2.28 a 17.31,17.31 0 0 0 7.06,-11.05 c 0.52,-2.91 0.44,-6.29 2.64,-8.26 1.14,-1 2.69,-1.44 3.91,-2.34 1.91,-1.4 2.81,-3.75 3.62,-6 l 7.34,-20.07 a 16.49,16.49 0 0 0 1.43,-6.74 c -0.35,-4.83 -4.81,-8.34 -9.28,-10.2 -4.47,-1.86 -9.42,-2.77 -13.36,-5.6 -6.65,-4.78 -8.71,-13.71 -9.31,-21.88 a 105.34,105.34 0 0 1 0.12,-16.85 c 0.73,-8.31 2.35,-17.17 -1.35,-24.65 -3.95,-8 -12.81,-12.07 -21,-15.55 -3.15,-1.34 -6.39,-2.69 -9.81,-2.84 -3.62,-0.16 -7.14,1 -10.56,2.23 -5.44,1.89 -11,4.33 -16.57,5.61 -3.15,0.72 -6.61,0.18 -9.65,1.32 -11.17,4.2 -6.04,19.74 -6.04,28.73 z" />
    <path
       style="fill:#b96b6b"
       inkscape:connector-curvature="0"
       id="path186"
       d="m 868.43,-221.58002 a 10.54,10.54 0 0 0 0.62,3.64 11.48,11.48 0 0 0 2.79,3.47 c 4.46,4.36 8.38,9.54 9.95,15.58 1.06,4.09 1,8.37 0.94,12.6 -0.26,17.11 -1,35.58 -11.54,49 -3.88,4.95 -8.88,8.88 -13.57,13.07 a 4.09,4.09 0 0 0 -1.43,1.91 3.57,3.57 0 0 0 0.44,2.36 c 2.18,4.53 6.77,7.31 11.12,9.83 2,1.15 4.08,2.34 6.38,2.41 5.42,0.18 9,-5.55 13.93,-7.8 7.18,-3.28 15.23,1.28 22.36,4.68 a 78.79,78.79 0 0 0 16.14,5.63 c 7.63,1.76 16.25,2.19 22.67,-2.28 a 17.31,17.31 0 0 0 7.06,-11.05 c 0.52,-2.91 0.44,-6.29 2.64,-8.26 1.14,-1 2.69,-1.44 3.91,-2.34 1.91,-1.4 2.81,-3.75 3.62,-6 l 7.34,-20.07 a 16.49,16.49 0 0 0 1.43,-6.74 c -0.35,-4.83 -4.81,-8.34 -9.28,-10.2 -4.47,-1.86 -9.42,-2.77 -13.36,-5.6 -6.65,-4.78 -8.71,-13.71 -9.31,-21.88 a 105.34,105.34 0 0 1 0.12,-16.85 c 0.73,-8.31 2.35,-17.17 -1.35,-24.65 -3.95,-8 -12.81,-12.07 -21,-15.55 -3.15,-1.34 -6.39,-2.69 -9.81,-2.84 -3.62,-0.16 -7.14,1 -10.56,2.23 -5.44,1.89 -11,4.33 -16.57,5.61 -3.15,0.72 -6.61,0.18 -9.65,1.32 -11.16,4.27 -6.03,19.78 -6.03,28.77 z" />
    <path
       style="opacity:0.05"
       inkscape:connector-curvature="0"
       id="path188"
       d="m 844.41,-58.95002 c 0,0 4.75,-1.13 28.59,-4.73 23.84,-3.6 65.55,4.77 65.55,4.77" />
  </g>
</svg>
